<?xml version="1.0" encoding="UTF-8"?>
<svg version="1.1" xmlns="http://www.w3.org/2000/svg" width="435" height="434">
<path d="M0 0 C143.55 0 287.1 0 435 0 C435 143.22 435 286.44 435 434 C291.45 434 147.9 434 0 434 C0 290.78 0 147.56 0 0 Z " fill="#FDFDFD" transform="translate(0,0)"/>
<path d="M0 0 C3.56236734 1.34916378 6.83164205 2.93038721 10.1484375 4.80078125 C11.63790894 5.63790649 11.63790894 5.63790649 13.1574707 6.49194336 C14.21925537 7.09272705 15.28104004 7.69351074 16.375 8.3125 C17.48770264 8.93842041 18.60040527 9.56434082 19.74682617 10.20922852 C25.09826836 13.22195127 30.441523 16.24876693 35.77734375 19.2890625 C37.62215868 20.33895849 39.4672089 21.38844114 41.3125 22.4375 C42.22539795 22.95658936 43.1382959 23.47567871 44.07885742 24.01049805 C53.25054855 29.19539017 62.54411325 34.14923311 71.86254883 39.06420898 C72.9945874 39.66434814 74.12662598 40.2644873 75.29296875 40.8828125 C76.2986792 41.41277832 77.30438965 41.94274414 78.34057617 42.48876953 C79.21818604 42.98747559 80.0957959 43.48618164 81 44 C82.04840813 44.51197182 82.04840813 44.51197182 83.11799622 45.0342865 C86.11439349 48.16396064 85.69063845 51.84423452 85.77148438 55.96264648 C85.82054932 57.3389045 85.82054932 57.3389045 85.87060547 58.7429657 C85.97000087 61.7855694 86.03608609 64.82742469 86.09375 67.87109375 C86.11504471 68.91249071 86.13633942 69.95388767 86.15827942 71.02684212 C86.26522715 76.54536276 86.34269439 82.06352204 86.40039062 87.58276367 C86.45365184 92.13976364 86.56475796 96.68955007 86.72851562 101.24389648 C86.92659957 106.75323617 87.0249482 112.25606861 87.05329895 117.76881599 C87.08004445 119.86130998 87.14068272 121.95367299 87.23686218 124.04412651 C87.81229153 137.31475317 87.81229153 137.31475317 85 143 C80.10755254 148.10679151 73.77350123 151.05233497 67.39283466 153.89905071 C64.14353701 155.39406079 61.20217641 157.19866374 58.17578125 159.1015625 C38.1576562 171.13291643 38.1576562 171.13291643 28.92407227 176.47802734 C25.40874752 178.52664162 21.97316188 180.65320769 18.58203125 182.90234375 C17.8557251 183.37824951 17.12941895 183.85415527 16.38110352 184.34448242 C14.99728567 185.25714588 13.62329856 186.18495927 12.26147461 187.13012695 C10.390625 188.359375 10.390625 188.359375 7 190 C4.6809082 189.30224609 4.6809082 189.30224609 2 188 C0.97769287 187.53062012 -0.04461426 187.06124023 -1.09790039 186.57763672 C-4.56798595 184.6473601 -7.24974029 182.87747319 -10 180 C-11.12915218 175.63686827 -10.94994989 171.61992206 -10.59011841 167.14654541 C-9.61691639 157.13987198 -9.61691639 157.13987198 -12.27050781 147.890625 C-14.46937264 145.86291364 -16.75366187 144.54134218 -19.40087891 143.17871094 C-23.7360523 140.82557444 -23.7360523 140.82557444 -24.61132812 138.08789062 C-25.14769162 133.33663922 -24.68422217 128.71353051 -24 124 C-24.680625 123.79375 -25.36125 123.5875 -26.0625 123.375 C-28.86477158 122.06329841 -29.92550455 121.11124066 -32.01196289 118.96435547 C-36.58455919 114.99147698 -40.89396071 115.13966467 -46.74609375 115.1953125 C-48.09193542 115.17488892 -48.09193542 115.17488892 -49.46496582 115.15405273 C-52.78889437 115.1121893 -56.11330961 115.1215632 -59.4375 115.125 C-66.883125 115.08375 -74.32875 115.0425 -82 115 C-82 92.56 -82 70.12 -82 47 C-63.56399632 56.21800184 -63.56399632 56.21800184 -56.4375 60.4375 C-55.26513794 61.12356323 -55.26513794 61.12356323 -54.0690918 61.82348633 C-46.67897336 66.15883243 -39.32940868 70.56291403 -32 75 C-32.165 75.61875 -32.33 76.2375 -32.5 76.875 C-33.07634644 78.96063386 -33.07634644 78.96063386 -33 81 C-32.18247697 79.41925436 -31.37118003 77.83528777 -30.5625 76.25 C-30.11003906 75.36828125 -29.65757812 74.4865625 -29.19140625 73.578125 C-28.16544602 71.35801434 -27.48491397 69.38555381 -27 67 C-27.78375 66.566875 -28.5675 66.13375 -29.375 65.6875 C-32 64 -32 64 -34 61 C-33.625 58.3125 -33.625 58.3125 -33 56 C-30.25851328 56.37047118 -28.41406801 56.68587944 -26.1875 58.375 C-25 60 -25 60 -25 63 C-20.88631677 62.3994623 -17.87842353 60.99659284 -14.25 59 C-8.96412319 56.26547462 -4.91980385 55.1973268 1 55 C0.90460938 54.08476562 0.80921875 53.16953125 0.7109375 52.2265625 C0.60007812 51.03804687 0.48921875 49.84953125 0.375 48.625 C0.25898438 47.44164062 0.14296875 46.25828125 0.0234375 45.0390625 C0.01183594 43.53472656 0.01183594 43.53472656 0 42 C0.99 41.01 0.99 41.01 2 40 C3.98 40.495 3.98 40.495 6 41 C6 45.62 6 50.24 6 55 C7.134375 55.0825 8.26875 55.165 9.4375 55.25 C16.36379148 56.10964611 22.11153124 59.43123105 28 63 C28.66 63 29.32 63 30 63 C30.99 61.02 31.98 59.04 33 57 C32.2884375 56.37867188 31.576875 55.75734375 30.84375 55.1171875 C27.10778925 51.36810891 24.93124774 46.77627803 22.5 42.125 C21.45104733 40.15657656 20.40019959 38.18916205 19.34765625 36.22265625 C18.80383301 35.20445801 18.26000977 34.18625977 17.69970703 33.13720703 C14.33345811 26.92400699 10.80234616 20.80239596 7.27734375 14.67822266 C4.53458998 9.874118 2.0442921 5.14256178 0 0 Z " fill="#46B9C3" transform="translate(243,157)"/>
<path d="M0 0 C4.21821674 1.53921073 6.34158512 4.65618976 8.9375 8.125 C9.91398974 9.39949206 10.89191263 10.67288704 11.87109375 11.9453125 C12.38140137 12.61079102 12.89170898 13.27626953 13.41748047 13.96191406 C16.05280086 17.35587497 18.77803103 20.67543924 21.5 24 C26.00789984 29.52179652 30.44786117 35.08970901 34.83374023 40.70874023 C38.35375483 45.20664277 41.94874383 49.63970969 45.5625 54.0625 C60.97015033 72.94030065 60.97015033 72.94030065 63 77 C56.54646385 74.94235079 50.2638737 72.57616518 44 70 C44.99 71.485 44.99 71.485 46 73 C46.046875 74.9296875 46.046875 74.9296875 45 77 C42.75633467 78.5564694 40.64375224 79.85059344 38.25 81.125 C37.62867188 81.47175781 37.00734375 81.81851563 36.3671875 82.17578125 C32.98647529 84.03731265 29.59196303 85.60244179 26 87 C14.19335937 63.38671875 14.19335937 63.38671875 12.90890503 60.81707764 C12.07092182 59.14159665 11.23216544 57.46650212 10.39260864 55.79180908 C8.69066038 52.39514446 6.99813006 48.99614122 5.34130859 45.57714844 C4.90254395 44.67254883 4.4637793 43.76794922 4.01171875 42.8359375 C3.65940186 42.09649902 3.30708496 41.35706055 2.9440918 40.59521484 C2.08651542 38.81744363 2.08651542 38.81744363 0 38 C-0.41270142 39.30408813 -0.41270142 39.30408813 -0.83374023 40.63452148 C-1.93973969 43.82610668 -3.2176828 46.79553444 -4.66015625 49.84765625 C-5.19745361 50.99049072 -5.73475098 52.1333252 -6.28833008 53.31079102 C-6.57608307 53.91915802 -6.86383606 54.52752502 -7.16030884 55.15432739 C-8.74476717 58.50552402 -10.31707265 61.86242225 -11.890625 65.21875 C-12.22439651 65.93007584 -12.55816803 66.64140167 -12.90205383 67.37428284 C-16.74986031 75.58330683 -20.53284347 83.82193187 -24.3125 92.0625 C-25.03059488 93.62752466 -25.74869386 95.19254743 -26.46679688 96.75756836 C-27.55511003 99.1297146 -28.64329626 101.50191882 -29.73120117 103.87425232 C-32.25003329 109.36679572 -34.77233687 114.85773333 -37.296875 120.34765625 C-44.37773873 135.74658281 -51.44979939 151.14950706 -58.5 166.5625 C-58.83693878 167.29886688 -59.17387756 168.03523376 -59.52102661 168.79391479 C-63.01126649 176.42358617 -66.4868794 184.05863531 -69.90014648 191.72314453 C-71.265731 194.7829026 -72.64867771 197.83447654 -74.03955078 200.8828125 C-74.69370649 202.32481512 -75.34022719 203.77030013 -75.97998047 205.21875 C-80.26255327 214.86674743 -84.42342497 221.48792 -93 228 C-94.79592277 229.45308876 -96.5874989 230.91156385 -98.375 232.375 C-99.74785156 233.48488281 -99.74785156 233.48488281 -101.1484375 234.6171875 C-104.70930065 237.59270329 -108.09701269 240.72867177 -111.49267578 243.8894043 C-116.47280483 248.49704252 -121.69464891 252.77034017 -127 257 C-127.33 256.34 -127.66 255.68 -128 255 C-127.15820312 252.81811523 -127.15820312 252.81811523 -125.78125 250.05859375 C-125.26933105 249.01815918 -124.75741211 247.97772461 -124.22998047 246.90576172 C-123.37364014 245.18897217 -123.37364014 245.18897217 -122.5 243.4375 C-121.27788901 240.95211732 -120.06383736 238.46284936 -118.8515625 235.97265625 C-118.53389923 235.32103516 -118.21623596 234.66941406 -117.88894653 233.99804688 C-114.41808977 226.85038601 -111.14087174 219.61802161 -107.875 212.375 C-102.11124213 199.61318339 -96.26981035 186.88932932 -90.375 174.1875 C-89.96890503 173.31233734 -89.56281006 172.43717468 -89.14440918 171.53549194 C-86.78557352 166.45286358 -84.42500939 161.3710399 -82.0637207 156.28955078 C-80.49462773 152.91223751 -78.92693012 149.53427726 -77.359375 146.15625 C-74.7500666 140.53385758 -72.13949086 134.91205515 -69.52832031 129.29052734 C-66.85154218 123.52732995 -64.17584332 117.76363147 -61.5 112 C-60.43359854 109.70312278 -59.36719228 107.40624778 -58.30078125 105.109375 C-57.76662598 103.95888672 -57.2324707 102.80839844 -56.68212891 101.62304688 C-51.78808594 91.08203125 -46.89404297 80.54101562 -42 70 C-43.68029297 70.63228516 -43.68029297 70.63228516 -45.39453125 71.27734375 C-46.86717658 71.83075824 -48.33983343 72.38414205 -49.8125 72.9375 C-50.55048828 73.21529297 -51.28847656 73.49308594 -52.04882812 73.77929688 C-52.76103516 74.04677734 -53.47324219 74.31425781 -54.20703125 74.58984375 C-54.8616333 74.83597412 -55.51623535 75.08210449 -56.19067383 75.33569336 C-57.78311815 75.92037033 -59.39066676 76.46355559 -61 77 C-59.36830958 73.14662939 -56.78508162 70.23975404 -54.0625 67.125 C-50.08514515 62.50579688 -46.23543685 57.81683606 -42.5 53 C-38.93319513 48.40876157 -35.28153518 43.91604347 -31.5 39.5 C-26.28771512 33.40573581 -21.32642326 27.13648315 -16.40576172 20.80566406 C-13.96832781 17.67484413 -11.51464701 14.55679955 -9.0625 11.4375 C-8.38960937 10.58007202 -8.38960937 10.58007202 -7.703125 9.70532227 C-5.1522653 6.45654041 -2.58545219 3.22131746 0 0 Z " fill="#21749A" transform="translate(192,78)"/>
<path d="M0 0 C1.32 0.33 2.64 0.66 4 1 C4 5.62 4 10.24 4 15 C5.134375 15.0825 6.26875 15.165 7.4375 15.25 C13.67155288 16.02510427 20.40203444 18.60194598 25 23 C25 23.66 25 24.32 25 25 C26.65 25.33 28.3 25.66 30 26 C30 27.32 30 28.64 30 30 C30.61488281 30.25007813 31.22976563 30.50015625 31.86328125 30.7578125 C34.36859433 32.21428336 34.9860275 33.27589622 36.1875 35.875 C36.51105469 36.55304688 36.83460938 37.23109375 37.16796875 37.9296875 C39.08036134 42.68822306 39 45.4892281 39 51 C44.28 51 49.56 51 55 51 C54.67 52.65 54.34 54.3 54 56 C49.38 56 44.76 56 40 56 C39.95875 57.0725 39.9175 58.145 39.875 59.25 C39.26506695 64.50480779 36.79843701 68.68613325 34.27734375 73.265625 C32.71784019 76.10100935 32.71784019 76.10100935 33 80 C33 80.66 33 81.32 33 82 C33.78375 82.103125 34.5675 82.20625 35.375 82.3125 C38 83 38 83 40 86 C39.625 88.6875 39.625 88.6875 39 91 C36.75 90.875 36.75 90.875 34 90 C31.6875 86.9375 31.6875 86.9375 30 84 C25.79724465 84.62263042 22.53380521 86.09895777 18.75 88 C13.29698378 90.59312944 9.00978654 91.79627842 3 92 C3.33 92.86625 3.66 93.7325 4 94.625 C5.17565535 98.59283679 5.90477819 102.19044361 4 106 C2.35 106 0.7 106 -1 106 C-3.17039373 101.65921255 -1.99178755 96.5732426 -1 92 C-1.70125 91.90203125 -2.4025 91.8040625 -3.125 91.703125 C-10.31940186 90.56922471 -16.42979338 88.94017016 -22.125 84.25 C-24.03248793 82.71221466 -24.03248793 82.71221466 -26.9375 83.125 C-30 83 -30 83 -32.6875 80.625 C-33.450625 79.75875 -34.21375 78.8925 -35 78 C-38.14802325 75.90131783 -38.9602183 75.74037997 -42.56323242 75.68115234 C-43.49679565 75.66109131 -44.43035889 75.64103027 -45.39221191 75.62036133 C-46.85902405 75.60332153 -46.85902405 75.60332153 -48.35546875 75.5859375 C-49.25672485 75.56829346 -50.15798096 75.55064941 -51.08654785 75.5324707 C-54.45335037 75.46940237 -57.82045204 75.42321657 -61.1875 75.375 C-72.4796875 75.189375 -72.4796875 75.189375 -84 75 C-84 52.56 -84 30.12 -84 7 C-65.56399632 16.21800184 -65.56399632 16.21800184 -58.4375 20.4375 C-57.26513794 21.12356323 -57.26513794 21.12356323 -56.0690918 21.82348633 C-48.67897336 26.15883243 -41.32940868 30.56291403 -34 35 C-34.165 35.61875 -34.33 36.2375 -34.5 36.875 C-35.07634644 38.96063386 -35.07634644 38.96063386 -35 41 C-34.18247697 39.41925436 -33.37118003 37.83528777 -32.5625 36.25 C-32.11003906 35.36828125 -31.65757812 34.4865625 -31.19140625 33.578125 C-30.16544602 31.35801434 -29.48491397 29.38555381 -29 27 C-29.78375 26.566875 -30.5675 26.13375 -31.375 25.6875 C-34 24 -34 24 -36 21 C-35.625 18.3125 -35.625 18.3125 -35 16 C-32.25851328 16.37047118 -30.41406801 16.68587944 -28.1875 18.375 C-27 20 -27 20 -27 23 C-22.88631677 22.3994623 -19.87842353 20.99659284 -16.25 19 C-10.96412319 16.26547462 -6.91980385 15.1973268 -1 15 C-1.09539062 14.08476562 -1.19078125 13.16953125 -1.2890625 12.2265625 C-1.39992188 11.03804687 -1.51078125 9.84953125 -1.625 8.625 C-1.74101562 7.44164062 -1.85703125 6.25828125 -1.9765625 5.0390625 C-1.98816406 3.53472656 -1.98816406 3.53472656 -2 2 C-1.34 1.34 -0.68 0.68 0 0 Z " fill="#2C7BA1" transform="translate(245,197)"/>
<path d="M0 0 C31.15307656 6.6729815 60.96548515 25.97035305 85.80688477 45.27172852 C92.63514697 50.55691664 99.70744053 55.38116963 107 60 C108.52173828 60.97066406 108.52173828 60.97066406 110.07421875 61.9609375 C125.31082419 71.2778471 141.37392044 76.31815951 159.25 76.6875 C160.38824219 76.72166016 161.52648437 76.75582031 162.69921875 76.79101562 C165.46604702 76.87239293 168.2326023 76.94189107 171 77 C169.58158814 79.83682372 167.95354651 79.94985013 165 81 C163.63875 81.495 163.63875 81.495 162.25 82 C154.04851457 84.52353398 146.52662186 85.35777497 137.9375 85.3125 C136.83132324 85.30758545 135.72514648 85.3026709 134.58544922 85.29760742 C125.74358371 85.17184785 117.58428036 84.18909644 109 82 C108.25588867 81.81775879 107.51177734 81.63551758 106.74511719 81.44775391 C98.3477727 79.38376595 90.04894899 77.07002947 81.8125 74.4375 C61.06812064 67.81634878 41.75185437 65.65149851 20 66 C13.79853623 49.16967474 7.79000645 32.36482572 3.25 15 C3.07992432 14.35125916 2.90984863 13.70251831 2.73461914 13.03411865 C0 2.5327658 0 2.5327658 0 0 Z " fill="#205D8A" transform="translate(131,286)"/>
<path d="M0 0 C0 26.07 0 52.14 0 79 C0.66 79.33 1.32 79.66 2 80 C1.34 81.65 0.68 83.3 0 85 C1.485 85.495 1.485 85.495 3 86 C-3.8540524 90.99725959 -10.88709671 95.34668737 -18.3125 99.4375 C-27.74141549 104.69969558 -37.15980752 109.95678982 -46.046875 116.109375 C-47.02140625 116.77453125 -47.9959375 117.4396875 -49 118.125 C-49.845625 118.72570312 -50.69125 119.32640625 -51.5625 119.9453125 C-54 121 -54 121 -56.25952148 120.265625 C-57.16387939 119.84796875 -58.0682373 119.4303125 -59 119 C-60.02230713 118.53062012 -61.04461426 118.06124023 -62.09790039 117.57763672 C-65.56798595 115.6473601 -68.24974029 113.87747319 -71 111 C-72.12915218 106.63686827 -71.94994989 102.61992206 -71.59011841 98.14654541 C-70.61691639 88.13987198 -70.61691639 88.13987198 -73.27050781 78.890625 C-75.46937264 76.86291364 -77.75366187 75.54134218 -80.40087891 74.17871094 C-84.7360523 71.82557444 -84.7360523 71.82557444 -85.61132812 69.08789062 C-86.14769162 64.33663922 -85.68422217 59.71353051 -85 55 C-85.66 54.67 -86.32 54.34 -87 54 C-85.203125 53.359375 -85.203125 53.359375 -83 53 C-81.28356704 54.18829974 -79.57228079 55.38679453 -77.91796875 56.66015625 C-72.67669057 60.32157868 -66.13606816 61.57555561 -60 63 C-60 67.62 -60 72.24 -60 77 C-58.35 77 -56.7 77 -55 77 C-54.91666643 72.1666528 -55.04738513 67.76307437 -56 63 C-55.34515625 62.85304688 -54.6903125 62.70609375 -54.015625 62.5546875 C-47.32960557 60.91151323 -41.71835768 58.50095718 -35.7265625 55.109375 C-32.56930437 53.82475994 -31.16703359 53.79946068 -28 55 C-26.65729179 56.99371825 -25.32346506 58.9934562 -24 61 C-22.68 61 -21.36 61 -20 61 C-20.10169161 58.05272465 -20.10169161 58.05272465 -21 55 C-22.64551962 54.28272222 -24.31422289 53.61674772 -26 53 C-27.625 50.875 -27.625 50.875 -28 48 C-26.97244678 46.02896609 -25.7261113 44.28788459 -24.44921875 42.46875 C-21.65770886 37.71340162 -20.44340458 32.28979555 -19 27 C-14.32798795 25.79431947 -9.78503708 25.90617574 -5 26 C-5.01571045 25.28344238 -5.0314209 24.56688477 -5.04760742 23.82861328 C-5.10981863 20.59415524 -5.14894649 17.35982281 -5.1875 14.125 C-5.21263672 12.99707031 -5.23777344 11.86914062 -5.26367188 10.70703125 C-5.27333984 9.63066406 -5.28300781 8.55429688 -5.29296875 7.4453125 C-5.3086792 6.45031738 -5.32438965 5.45532227 -5.34057617 4.43017578 C-5.22818604 3.62821777 -5.1157959 2.82625977 -5 2 C-2 0 -2 0 0 0 Z " fill="#6791AF" transform="translate(304,226)"/>
<path d="M0 0 C3 1 3 1 4.515625 3.6484375 C5.10109377 4.88718066 5.67848011 6.12975974 6.25 7.375 C10.08032543 15.37256893 14.30864286 23.1324119 18.625 30.875 C19.57487793 32.58502197 19.57487793 32.58502197 20.54394531 34.32958984 C26.73364834 46.414997 26.73364834 46.414997 35 57 C35.33 57.66 35.66 58.32 36 59 C34.68 60.98 33.36 62.96 32 65 C28.99695497 63.87385811 26.19454892 62.5767022 23.375 61.0625 C18.48347776 58.56051449 13.31723927 57.29021247 8 56 C7.24702559 52.6620111 6.88646046 49.60714911 6.9375 46.1875 C6.94652344 45.39730469 6.95554687 44.60710937 6.96484375 43.79296875 C6.97644531 43.20128906 6.98804688 42.60960937 7 42 C5.68 42.33 4.36 42.66 3 43 C3 47.29 3 51.58 3 56 C1.22625 56.37125 -0.5475 56.7425 -2.375 57.125 C-7.97028164 58.48744447 -12.14663199 60.60264239 -16.84375 63.890625 C-19 65 -19 65 -21.19140625 64.828125 C-23 64 -23 64 -24.4375 61.5 C-25.77767835 58.74538088 -25.77767835 58.74538088 -28.6875 58.1875 C-29.8321875 58.0946875 -29.8321875 58.0946875 -31 58 C-30.505 61.465 -30.505 61.465 -30 65 C-28.7934375 65.37125 -28.7934375 65.37125 -27.5625 65.75 C-25 67 -25 67 -23.9375 68.75 C-24.01640231 71.59048333 -25.2246583 72.92031751 -26.8828125 75.14453125 C-28.70996597 78.17913929 -29.42220296 81.51443399 -30.2890625 84.92578125 C-31 87 -31 87 -33 88 C-32.0625 79.96428571 -32.0625 79.96428571 -31 76 C-32.15048828 75.34257812 -32.15048828 75.34257812 -33.32421875 74.671875 C-48.8828125 65.78125 -64.44140625 56.890625 -80 48 C-75.44798954 44.06871824 -70.4220873 41.14872404 -65.25 38.125 C-64.28843994 37.55910156 -63.32687988 36.99320313 -62.33618164 36.41015625 C-54.05832048 31.56314996 -45.67905193 26.90664183 -37.29052734 22.25488281 C-28.49185764 17.34431656 -19.92239142 12.11247692 -11.3984375 6.7421875 C-9.93285388 5.82722383 -8.46674345 4.91310323 -7 4 C-6.33000977 3.57493164 -5.66001953 3.14986328 -4.96972656 2.71191406 C-3.35941877 1.72788384 -1.68367293 0.85243894 0 0 Z " fill="#A9C7D4" transform="translate(241,156)"/>
<path d="M0 0 C-6.3 20.3 -6.3 20.3 -10 24 C-12.08635561 23.97005049 -14.17166438 23.86480236 -16.25390625 23.73046875 C-17.2205294 23.66989288 -17.2205294 23.66989288 -18.2066803 23.60809326 C-20.32569012 23.4734947 -22.44406371 23.33082361 -24.5625 23.1875 C-26.01805555 23.09236312 -27.47362204 22.99739335 -28.92919922 22.90258789 C-37.83298492 22.31518536 -46.73165491 21.66706244 -55.625 20.9375 C-56.59381104 20.85846436 -57.56262207 20.77942871 -58.56079102 20.69799805 C-59.46112061 20.62105713 -60.3614502 20.54411621 -61.2890625 20.46484375 C-62.44462646 20.36610962 -62.44462646 20.36610962 -63.62353516 20.26538086 C-66.42992524 19.95199006 -69.21458719 19.46423547 -72 19 C-72 31.87 -72 44.74 -72 58 C-70.02 58 -68.04 58 -66 58 C-62.8193699 60.08444865 -60.78987174 62.65740041 -59 66 C-59.1770764 69.71860435 -59.69964263 71.59763125 -61 75 C-61.5026368 76.44916064 -62.00094473 77.89982639 -62.49609375 79.3515625 C-63.95164186 83.58504249 -65.4647009 87.79482543 -67 92 C-68.32 92 -69.64 92 -71 92 C-70.9071875 92.72445312 -70.814375 93.44890625 -70.71875 94.1953125 C-70.48719488 97.29649718 -70.43447136 99.93601645 -71 103 C-72.84981545 105.12010811 -74.63716863 106.36019948 -77.0546875 107.78125 C-79.29701405 109.00070424 -79.29701405 109.00070424 -81 112 C-81.33521079 115.01689707 -81.55946915 117.09775379 -81 120 C-79.08817732 122.74612994 -79.08817732 122.74612994 -76 124 C-72.27118095 124 -70.01174075 123.90707791 -67.1875 121.375 C-65.84380747 118.87449517 -65.84380747 118.87449517 -65 115.4375 C-64.07129342 112.24507115 -63.65800754 110.88275534 -61 109 C-60.34 109 -59.68 109 -59 109 C-58.31171686 122.95685258 -58.31171686 122.95685258 -60.6875 126.6875 C-64.92933865 130.92933865 -68.81971654 132.82128824 -74.8125 133.3125 C-79.20360994 133.24804334 -81.61154946 131.84937886 -85 129 C-88.84443538 124.83519501 -90.73669392 121.32587039 -91.375 115.6875 C-90.83154754 110.34355085 -89.25941017 106.08328688 -85.24609375 102.3828125 C-80.66878531 99 -80.66878531 99 -78 99 C-78 96.69 -78 94.38 -78 92 C-79.65 92 -81.3 92 -83 92 C-84.1483058 88.58415928 -85.29321208 85.16718858 -86.4375 81.75 C-86.76298828 80.78191406 -87.08847656 79.81382812 -87.42382812 78.81640625 C-87.73642578 77.88183594 -88.04902344 76.94726562 -88.37109375 75.984375 C-88.65911865 75.12553711 -88.94714355 74.26669922 -89.24389648 73.38183594 C-91.16543835 67.32869987 -91.16543835 67.32869987 -89.8125 64.640625 C-89.214375 63.85171875 -88.61625 63.0628125 -88 62.25 C-87.4225 61.45078125 -86.845 60.6515625 -86.25 59.828125 C-84 58 -84 58 -77 58 C-77 44.8 -77 31.6 -77 18 C-79.64 18 -82.28 18 -85 18 C-85 13.05 -85 8.1 -85 3 C-41.1351341 0.99566592 -41.1351341 0.99566592 -23.375 0.375 C-22.26036377 0.33511963 -21.14572754 0.29523926 -19.99731445 0.25415039 C-13.32903916 0.03117076 -6.6718312 -0.04462211 0 0 Z " fill="#9BA2B7" transform="translate(131,171)"/>
<path d="M0 0 C16.88547272 2.39488751 33.49163306 21.84467711 43.29199219 34.74316406 C60.33160147 57.99131833 69.22404535 83.5597118 69.25 112.3125 C69.25100708 113.07944183 69.25201416 113.84638367 69.25305176 114.63656616 C69.24319219 125.7020459 68.8839907 136.25282098 66 147 C65.69835937 148.1446875 65.39671875 149.289375 65.0859375 150.46875 C59.20697824 170.92561636 48.88921742 191.49245366 33 206 C28.71640327 204.1144852 26.84896408 201.64034299 24 198 C24.80050781 197.195625 24.80050781 197.195625 25.6171875 196.375 C36.73087272 184.68447991 44.19814096 170.96056558 50 156 C50.39960938 154.97390625 50.79921875 153.9478125 51.2109375 152.890625 C61.2353184 125.00324955 59.36479114 92.85962364 47 66 C35.9427169 42.64274535 19.62739973 21.60001537 -4 10 C-2.8905928 6.51329166 -1.73662334 3.22515763 0 0 Z " fill="#D7F5F4" transform="translate(341,129)"/>
<path d="M0 0 C18.43600368 9.21800184 18.43600368 9.21800184 25.5625 13.4375 C26.34407471 13.89487549 27.12564941 14.35225098 27.9309082 14.82348633 C35.32102664 19.15883243 42.67059132 23.56291403 50 28 C49.84789062 28.58523437 49.69578125 29.17046875 49.5390625 29.7734375 C47.9361933 35.48291426 47.9361933 35.48291426 49 41 C48.67 42.32 48.34 43.64 48 45 C43.38 45 38.76 45 34 45 C34.495 46.98 34.495 46.98 35 49 C39.29 49 43.58 49 48 49 C48.20625 50.4025 48.4125 51.805 48.625 53.25 C49.71879431 58.87982365 52.05244739 63.50884969 54.7578125 68.53125 C56 71 56 71 56 73 C55.34 73 54.68 73 54 73 C53.67 73.66 53.34 74.32 53 75 C52.42903847 74.36431595 52.42903847 74.36431595 51.84654236 73.71578979 C47.47379047 69.36761713 44.2672616 68.29596731 38.15515137 68.16772461 C37.19774048 68.17682861 36.24032959 68.18593262 35.25390625 68.1953125 C33.90806458 68.17488892 33.90806458 68.17488892 32.53503418 68.15405273 C29.21110563 68.1121893 25.88669039 68.1215632 22.5625 68.125 C15.116875 68.08375 7.67125 68.0425 0 68 C0 45.56 0 23.12 0 0 Z " fill="#707B9D" transform="translate(161,204)"/>
<path d="M0 0 C0.66895294 0.00087616 1.33790588 0.00175232 2.02713013 0.00265503 C13.08111267 0.05036484 23.06676899 1.13636173 33.625 4.375 C34.50671875 4.63764648 35.3884375 4.90029297 36.296875 5.17089844 C41.19150048 6.63025911 46.07483482 8.12373355 50.953125 9.63671875 C79.90577258 18.56590294 110.15277436 25.03068848 138.93017578 12.26904297 C140.47440355 11.58860041 142.04792212 10.9753889 143.625 10.375 C144.615 10.87 144.615 10.87 145.625 11.375 C135.59226215 18.63341163 125.61683595 23.24658067 113.625 26.375 C112.88805908 26.56932617 112.15111816 26.76365234 111.3918457 26.96386719 C103.76036517 28.73793145 96.11450076 28.77161599 88.3125 28.75 C87.60801727 28.74978851 86.90353455 28.74957703 86.17770386 28.74935913 C70.15482733 28.70151476 55.60735828 26.00337057 40.3425293 21.31298828 C13.03411191 13.07887987 -11.42398827 11.91056199 -38.56079102 20.59716797 C-57.21354785 26.48893795 -74.90599304 26.44323286 -92.375 17.375 C-95.93879937 15.42339559 -98.60404849 13.35120718 -101.375 10.375 C-96.777893 11.826718 -92.37051311 13.59004652 -87.9375 15.47265625 C-68.46275298 22.33037967 -48.78178441 14.35985492 -31.20507812 6.26049805 C-20.32487255 1.27259739 -12.03057125 -0.01723256 0 0 Z " fill="#295F8E" transform="translate(167.375,357.625)"/>
<path d="M0 0 C21.19091395 7.50674443 36.69367284 28.1290245 46.35546875 47.53125 C58.53617194 73.22356458 59.72417977 103.51020148 50.51611328 130.31860352 C45.34547494 144.65648669 38.06795405 157.36458668 27 168 C22.71920815 166.41452154 20.79288282 163.45520826 18 160 C18.70125 159.175 19.4025 158.35 20.125 157.5 C26.79058505 149.45910771 31.92374938 141.33321638 36.19140625 131.79736328 C36.93338353 130.14807682 37.72983207 128.52357952 38.53125 126.90234375 C42.88554484 116.48277233 43.52868114 105.26920251 43.4375 94.125 C43.42920166 92.80870605 43.42090332 91.49241211 43.41235352 90.13623047 C43.24430771 80.46372935 42.41222472 72.0791348 39 63 C38.75330566 62.3390332 38.50661133 61.67806641 38.25244141 60.99707031 C29.93105275 39.20514644 15.26665907 22.87125449 -4 10 C-2.8905928 6.51329166 -1.73662334 3.22515763 0 0 Z " fill="#D6F5F3" transform="translate(330,150)"/>
<path d="M0 0 C3.56236734 1.34916378 6.83164205 2.93038721 10.1484375 4.80078125 C11.63790894 5.63790649 11.63790894 5.63790649 13.1574707 6.49194336 C14.21925537 7.09272705 15.28104004 7.69351074 16.375 8.3125 C17.48770264 8.93842041 18.60040527 9.56434082 19.74682617 10.20922852 C25.09826836 13.22195127 30.441523 16.24876693 35.77734375 19.2890625 C37.62216831 20.33894157 39.46721853 21.38842422 41.3125 22.4375 C42.22394775 22.95586426 43.13539551 23.47422852 44.07446289 24.00830078 C53.30423314 29.22675352 62.65913666 34.20856317 72.03833008 39.15209961 C73.17681396 39.75546143 74.31529785 40.35882324 75.48828125 40.98046875 C76.50446533 41.51567139 77.52064941 42.05087402 78.56762695 42.60229492 C81 44 81 44 83 46 C83 46.99 83 47.98 83 49 C82.31075439 49.38220703 81.62150879 49.76441406 80.91137695 50.15820312 C77.71004009 51.93574321 74.51096644 53.71730007 71.3125 55.5 C70.16813477 56.13695801 69.02376953 56.77391602 67.84472656 57.43017578 C60.89183771 61.31980012 54.07870169 65.31896731 47.453125 69.7421875 C44.69154239 71.1581582 43.06049496 71.42899246 40 71 C38.1875 69 38.1875 69 37 67 C38.65 65.35 40.3 63.7 42 62 C41.67 61.67 41.34 61.34 41 61 C40.401875 61.66 39.80375 62.32 39.1875 63 C37 65 37 65 34 65 C34 66.65 34 68.3 34 70 C33.34 70 32.68 70 32 70 C31.67 68.68 31.34 67.36 31 66 C29.68 65.67 28.36 65.34 27 65 C27.33 64.34 27.66 63.68 28 63 C28.66 63 29.32 63 30 63 C30.99 61.02 31.98 59.04 33 57 C32.2884375 56.37867188 31.576875 55.75734375 30.84375 55.1171875 C27.10778925 51.36810891 24.93124774 46.77627803 22.5 42.125 C21.45104733 40.15657656 20.40019959 38.18916205 19.34765625 36.22265625 C18.80383301 35.20445801 18.26000977 34.18625977 17.69970703 33.13720703 C14.33345811 26.92400699 10.80234616 20.80239596 7.27734375 14.67822266 C4.53458998 9.874118 2.0442921 5.14256178 0 0 Z " fill="#3BB9C0" transform="translate(243,157)"/>
<path d="M0 0 C4.21821674 1.53921073 6.34158512 4.65618976 8.9375 8.125 C9.91398974 9.39949206 10.89191263 10.67288704 11.87109375 11.9453125 C12.38140137 12.61079102 12.89170898 13.27626953 13.41748047 13.96191406 C16.05280086 17.35587497 18.77803103 20.67543924 21.5 24 C26.00789984 29.52179652 30.44786117 35.08970901 34.83374023 40.70874023 C38.35375483 45.20664277 41.94874383 49.63970969 45.5625 54.0625 C60.97015033 72.94030065 60.97015033 72.94030065 63 77 C56.54646385 74.94235079 50.2638737 72.57616518 44 70 C44.99 71.485 44.99 71.485 46 73 C46.046875 74.9296875 46.046875 74.9296875 45 77 C42.75633467 78.5564694 40.64375224 79.85059344 38.25 81.125 C37.62867188 81.47175781 37.00734375 81.81851563 36.3671875 82.17578125 C32.98647529 84.03731265 29.59196303 85.60244179 26 87 C14.19335938 63.38671875 14.19335938 63.38671875 12.90914917 60.81732178 C12.07061273 59.14089644 11.2310445 57.46498677 10.39041138 55.78961182 C8.69471681 52.40781619 7.01149992 49.02399592 5.37646484 45.61230469 C4.94672363 44.71672852 4.51698242 43.82115234 4.07421875 42.8984375 C3.73350342 42.17060059 3.39278809 41.44276367 3.04174805 40.69287109 C1.96070865 38.67197977 1.96070865 38.67197977 -1 37 C-0.67 36.67 -0.34 36.34 0 36 C0.08790975 33.70848583 0.10694038 31.41427476 0.09765625 29.12109375 C0.0962413 28.4344313 0.09482635 27.74776886 0.09336853 27.04029846 C0.08775479 24.83932199 0.07520007 22.63844591 0.0625 20.4375 C0.05748676 18.94856917 0.05292355 17.45963676 0.04882812 15.97070312 C0.03778093 12.31376925 0.02050713 8.65689442 0 5 C-1.27360715 6.24978374 -2.54376686 7.50308114 -3.8125 8.7578125 C-4.52019531 9.45535645 -5.22789062 10.15290039 -5.95703125 10.87158203 C-8.36073384 13.3758219 -10.38821563 16.03358697 -12.42578125 18.8359375 C-14.30732567 21.42247747 -16.23093752 23.96965507 -18.1875 26.5 C-18.84105469 27.3559375 -19.49460938 28.211875 -20.16796875 29.09375 C-20.77253906 29.7228125 -21.37710938 30.351875 -22 31 C-22.99 31 -23.98 31 -25 31 C-24.32195312 30.21238281 -23.64390625 29.42476562 -22.9453125 28.61328125 C-17.15314653 21.84754513 -11.57498575 14.97032718 -6.19140625 7.875 C-4.16566216 5.21733931 -2.09849346 2.60041103 0 0 Z " fill="#1D7CA0" transform="translate(192,78)"/>
<path d="M0 0 C16.014633 4.64940958 26.9980914 19.14880401 35 33 C45.71192473 52.95463286 46.84242192 76.11328681 40.42749023 97.63134766 C36.46991777 110.05865936 30.07474761 119.69889814 21 129 C17.70034336 127.4492297 15.78045739 126.27978992 14 123 C14.35911971 118.64658962 16.05798215 116.29240195 18.75 112.9375 C22.99341333 107.29732808 25.65016524 101.62603584 28 95 C28.25966553 94.35780518 28.51933105 93.71561035 28.78686523 93.05395508 C31.21189943 86.66421671 31.50342791 80.72963196 31.4375 73.9375 C31.42920166 72.83567383 31.42090332 71.73384766 31.41235352 70.59863281 C31.01801995 51.41802381 24.87068918 35.5996008 11 22 C5.97340505 17.18601027 0.96748703 12.61190005 -5 9 C-3.35 6.03 -1.7 3.06 0 0 Z " fill="#D5F5F4" transform="translate(318,172)"/>
<path d="M0 0 C0.33 0 0.66 0 1 0 C1 13.2 1 26.4 1 40 C3.31 40 5.62 40 8 40 C11.25183476 42.04003993 13.23405605 44.60571812 15 48 C14.8229236 51.71860435 14.30035737 53.59763125 13 57 C12.4973632 58.44916064 11.99905527 59.89982639 11.50390625 61.3515625 C10.04835814 65.58504249 8.5352991 69.79482543 7 74 C5.68 74 4.36 74 3 74 C3.0928125 74.72445312 3.185625 75.44890625 3.28125 76.1953125 C3.51280512 79.29649718 3.56552864 81.93601645 3 85 C1.15018455 87.12010811 -0.63716863 88.36019948 -3.0546875 89.78125 C-5.29701405 91.00070424 -5.29701405 91.00070424 -7 94 C-7.33521079 97.01689707 -7.55946915 99.09775379 -7 102 C-5.08817732 104.74612994 -5.08817732 104.74612994 -2 106 C1.72881905 106 3.98825925 105.90707791 6.8125 103.375 C8.15619253 100.87449517 8.15619253 100.87449517 9 97.4375 C9.92870658 94.24507115 10.34199246 92.88275534 13 91 C13.66 91 14.32 91 15 91 C15.68828314 104.95685258 15.68828314 104.95685258 13.3125 108.6875 C9.07066135 112.92933865 5.18028346 114.82128824 -0.8125 115.3125 C-5.20360994 115.24804334 -7.61154946 113.84937886 -11 111 C-14.84443538 106.83519501 -16.73669392 103.32587039 -17.375 97.6875 C-16.83154754 92.34355085 -15.25941017 88.08328688 -11.24609375 84.3828125 C-6.66878531 81 -6.66878531 81 -4 81 C-4 78.69 -4 76.38 -4 74 C-5.65 74 -7.3 74 -9 74 C-10.1483058 70.58415928 -11.29321208 67.16718858 -12.4375 63.75 C-12.76298828 62.78191406 -13.08847656 61.81382812 -13.42382812 60.81640625 C-13.73642578 59.88183594 -14.04902344 58.94726562 -14.37109375 57.984375 C-14.65911865 57.12553711 -14.94714355 56.26669922 -15.24389648 55.38183594 C-17.16350897 49.33477769 -17.16350897 49.33477769 -15.84765625 46.640625 C-15.25855469 45.85171875 -14.66945312 45.0628125 -14.0625 44.25 C-13.49660156 43.45078125 -12.93070313 42.6515625 -12.34765625 41.828125 C-9.70230559 39.76818472 -9.06363051 39.79054812 -5.85327148 39.88574219 C-3.9459021 39.9422998 -3.9459021 39.9422998 -2 40 C-2.01047363 38.93040039 -2.02094727 37.86080078 -2.03173828 36.75878906 C-2.06797406 32.7855159 -2.0909135 28.81225731 -2.10986328 24.83886719 C-2.1199127 23.12009219 -2.13355445 21.40133425 -2.15087891 19.68261719 C-2.17517391 17.21024359 -2.18649368 14.73809631 -2.1953125 12.265625 C-2.21079636 11.11540863 -2.21079636 11.11540863 -2.22659302 9.94195557 C-2.22739012 6.14043233 -2.14509572 3.22135482 0 0 Z " fill="#2F4C86" transform="translate(57,189)"/>
<path d="M0 0 C4.17087783 1.18433108 8.35463372 2.30102457 12.55908203 3.359375 C13.68958984 3.64683594 14.82009766 3.93429687 15.98486328 4.23046875 C31.75752141 7.57389449 46.91191291 6.59042982 62.24658203 1.921875 C63.56354016 1.54166265 64.88123044 1.16397535 66.19970703 0.7890625 C67.70791016 0.35980469 67.70791016 0.35980469 69.24658203 -0.078125 C61.09630445 9.13879965 45.024621 12.90846036 33.24658203 13.921875 C15.55840701 14.97120846 -1.24222518 12.60331034 -18.09277344 7.26635742 C-24.44374765 5.26402774 -30.82537845 3.59750381 -37.31591797 2.109375 C-38.19554199 1.9026416 -39.07516602 1.6959082 -39.98144531 1.48291016 C-55.19347075 -1.92910611 -70.83894964 -2.55195167 -85.96044922 1.36328125 C-88.75341797 1.921875 -88.75341797 1.921875 -91.75341797 0.921875 C-60.65810733 -16.07958705 -32.52899562 -9.33631998 0 0 Z " fill="#2D6C96" transform="translate(215.75341796875,388.078125)"/>
<path d="M0 0 C0.66 0 1.32 0 2 0 C2.44085938 1.53914063 2.44085938 1.53914063 2.890625 3.109375 C5.42534823 11.80613148 8.1197686 20.43904747 11 29.02734375 C11.2653656 29.81873749 11.5307312 30.61013123 11.80413818 31.42550659 C13.14812486 35.42610187 14.5002298 39.42380851 15.86035156 43.41894531 C18.27547372 50.54948208 20.60998627 57.58376822 22 65 C20.39850114 65.67305018 18.79368971 66.33822227 17.1875 67 C16.29417969 67.37125 15.40085938 67.7425 14.48046875 68.125 C12 69 12 69 9 69 C8.52691406 68.030625 8.05382812 67.06125 7.56640625 66.0625 C4.01783789 58.84632039 0.37311505 51.70128286 -3.5625 44.6875 C-3.93479736 44.02314941 -4.30709473 43.35879883 -4.69067383 42.67431641 C-7.4943192 37.74053732 -10.56895549 33.03963081 -13.8828125 28.4296875 C-15.39012184 25.1515532 -14.9931087 23.43597877 -14 20 C-10.36212516 12.96060941 -5.42323332 5.79527571 0 0 Z " fill="#28457E" transform="translate(125,288)"/>
<path d="M0 0 C5.74315434 -0.22477723 11.48367712 -0.38684312 17.23022461 -0.49438477 C19.17892113 -0.5392693 21.12732119 -0.60040435 23.07495117 -0.67895508 C36.93097088 -1.22323518 44.34491926 -0.02664948 55 9 C57.12388613 10.18452983 57.12388613 10.18452983 59.11328125 10.96875 C62.88019047 12.7717151 65.94813412 14.30119233 68 18 C69.61211656 26.19727449 68.79183618 34.7396024 68 43 C62.7774323 39.57792226 57.6520662 36.06230815 52.62475586 32.359375 C35.93240542 20.07720354 18.48257794 10.36951738 0 1 C0 0.67 0 0.34 0 0 Z " fill="#2287A7" transform="translate(160,291)"/>
<path d="M0 0 C2.19429071 1.02400233 4.22563408 2.09857146 6.3125 3.3125 C11.61704697 6.39255953 16.87295078 7.90311544 22.8125 9.3125 C22.8125 13.9325 22.8125 18.5525 22.8125 23.3125 C24.4625 23.3125 26.1125 23.3125 27.8125 23.3125 C28.1425 37.8325 28.4725 52.3525 28.8125 67.3125 C22.42437387 64.75724955 16.63098848 62.35386805 11.8125 57.3125 C10.68334782 52.94936827 10.86255011 48.93242206 11.22238159 44.45904541 C12.19558361 34.45237198 12.19558361 34.45237198 9.54199219 25.203125 C7.34312736 23.17541364 5.05883813 21.85384218 2.41162109 20.49121094 C-1.9235523 18.13807444 -1.9235523 18.13807444 -2.79882812 15.40039062 C-3.33519162 10.64913922 -2.87172217 6.02603051 -2.1875 1.3125 C-2.8475 0.9825 -3.5075 0.6525 -4.1875 0.3125 C-2.1875 -0.6875 -2.1875 -0.6875 0 0 Z " fill="#BFC3CD" transform="translate(221.1875,279.6875)"/>
<path d="M0 0 C0.33 0.66 0.66 1.32 1 2 C1.66 1.34 2.32 0.68 3 0 C10.78564036 0.13423518 18.26564089 4.57945258 23.859375 9.703125 C28.90131347 15.2442653 31.19144594 20.41661343 31 28 C27.85463232 28.19594676 24.70869386 28.3803401 21.5625 28.5625 C20.66466797 28.61857422 19.76683594 28.67464844 18.84179688 28.73242188 C17.98779297 28.78076172 17.13378906 28.82910156 16.25390625 28.87890625 C15.46314697 28.9260376 14.6723877 28.97316895 13.85766602 29.02172852 C12 29 12 29 11 28 C10.73445313 28.56589844 10.46890625 29.13179687 10.1953125 29.71484375 C9.84210938 30.44832031 9.48890625 31.18179688 9.125 31.9375 C8.60292969 33.03384766 8.60292969 33.03384766 8.0703125 34.15234375 C7 36 7 36 5 37 C-1.18035883 37.44948064 -1.18035883 37.44948064 -3.9375 35.9375 C-5.59162584 32.92115289 -5.30575763 30.36333392 -5 27 C-4.34 26.34 -3.68 25.68 -3 25 C-3 24.01 -3 23.02 -3 22 C-2.67 21.34 -2.34 20.68 -2 20 C-3.32 20 -4.64 20 -6 20 C-7.78125 18.35546875 -7.78125 18.35546875 -9.5 16.1875 C-11.79612182 13.32256619 -13.97864666 11.10037063 -17 9 C-15.95118776 5.95127869 -15.167438 5.09154883 -12.28515625 3.515625 C-10.68994141 2.88914063 -10.68994141 2.88914063 -9.0625 2.25 C-8.00160156 1.82203125 -6.94070312 1.3940625 -5.84765625 0.953125 C-3 0 -3 0 0 0 Z " fill="#4188A9" transform="translate(245,220)"/>
<path d="M0 0 C2.27135148 0.97706657 4.50753164 2.03823859 6.7109375 3.16015625 C7.32393707 3.46948593 7.93693665 3.77881561 8.56851196 4.09751892 C10.50792613 5.07833915 12.44144573 6.07018626 14.375 7.0625 C15.69623961 7.7331611 17.01785087 8.40309056 18.33984375 9.07226562 C21.5650327 10.70509341 24.78199774 12.35273993 28 14 C28 18.95 28 23.9 28 29 C25.339375 29.556875 25.339375 29.556875 22.625 30.125 C17.02971836 31.48744447 12.85336801 33.60264239 8.15625 36.890625 C6 38 6 38 3.80859375 37.828125 C2 37 2 37 0.5625 34.5 C-0.76082029 31.79224536 -0.76082029 31.79224536 -3.4375 31.1875 C-5.62005782 31.02780065 -7.81160732 31 -10 31 C-14.2027936 29.17693776 -18.1717246 26.88834138 -22.1875 24.6875 C-23.30576172 24.09259766 -24.42402344 23.49769531 -25.57617188 22.88476562 C-26.63771484 22.30791016 -27.69925781 21.73105469 -28.79296875 21.13671875 C-29.7677417 20.60780029 -30.74251465 20.07888184 -31.74682617 19.53393555 C-34 18 -34 18 -35 15 C-32.79394531 13.86572266 -32.79394531 13.86572266 -30 13 C-27.68261719 13.74755859 -27.68261719 13.74755859 -25.296875 15.1484375 C-24.40701904 15.65632813 -23.51716309 16.16421875 -22.6003418 16.6875 C-21.659729 17.244375 -20.71911621 17.80125 -19.75 18.375 C-17.77372996 19.48981061 -15.7958459 20.60176454 -13.81640625 21.7109375 C-12.34518311 22.54383301 -12.34518311 22.54383301 -10.84423828 23.39355469 C-0.08554555 30.31962137 -0.08554555 30.31962137 11.90625 32.6640625 C14.23717146 31.65752823 15.99328632 30.5395187 18 29 C19.32585733 28.31858634 20.65841787 27.64990738 22 27 C20.88625 26.38253906 19.7725 25.76507813 18.625 25.12890625 C14.58483671 22.88813219 10.54793452 20.64152925 6.51123047 18.39453125 C4.12629931 17.07013627 1.73747335 15.75305205 -0.65234375 14.4375 C-2.08082464 13.64600562 -3.50921434 12.85434663 -4.9375 12.0625 C-5.60458984 11.69777588 -6.27167969 11.33305176 -6.95898438 10.95727539 C-10.01121348 9.25802687 -12.72111294 7.68252757 -15 5 C-13.64093302 3.95804865 -12.26185484 2.94216877 -10.875 1.9375 C-10.10929687 1.36902344 -9.34359375 0.80054688 -8.5546875 0.21484375 C-5.17927299 -1.39028456 -3.61690343 -0.85817481 0 0 Z " fill="#E4EDF0" transform="translate(216,183)"/>
<path d="M0 0 C3.78387654 1.38967269 7.02287672 3.14002343 10.421875 5.30078125 C11.96101562 6.27241211 11.96101562 6.27241211 13.53125 7.26367188 C14.5934375 7.93978516 15.655625 8.61589844 16.75 9.3125 C18.84755622 10.64413822 20.946494 11.973603 23.046875 13.30078125 C24.05169922 13.94096191 25.05652344 14.58114258 26.09179688 15.24072266 C28.74303454 16.84455229 31.41704679 18.19459954 34.203125 19.54296875 C36.36035156 20.69213867 36.36035156 20.69213867 38 22 C39.0625 25.8125 39.0625 25.8125 39 29 C36.0460832 30.84052424 33.08617092 32.67117365 30.125 34.5 C29.28324219 35.02464844 28.44148438 35.54929688 27.57421875 36.08984375 C26.76855469 36.58613281 25.96289062 37.08242187 25.1328125 37.59375 C24.38918457 38.05458984 23.64555664 38.51542969 22.87939453 38.99023438 C21 40 21 40 19 40 C16.28902487 34.62738159 13.58325071 29.25218884 10.88232422 23.87451172 C9.96221146 22.04436161 9.0406659 20.21493114 8.11767578 18.38623047 C6.79344965 15.76195849 5.4743492 13.13516608 4.15625 10.5078125 C3.74064819 9.68693146 3.32504639 8.86605042 2.89685059 8.02029419 C2.32625916 6.87933792 2.32625916 6.87933792 1.74414062 5.71533203 C1.40660767 5.04470734 1.06907471 4.37408264 0.72131348 3.68313599 C0 2 0 2 0 0 Z " fill="#88B9CC" transform="translate(199,125)"/>
<path d="M0 0 C20.13 0 40.26 0 61 0 C61 0.66 61 1.32 61 2 C61.5775 2.226875 62.155 2.45375 62.75 2.6875 C65.73759691 4.43026486 67.21601425 6.02669042 69 9 C68.75 12.8125 68.75 12.8125 68 16 C66.53426066 15.09522263 65.07764244 14.17565859 63.625 13.25 C62.81289062 12.73953125 62.00078125 12.2290625 61.1640625 11.703125 C59 10 59 10 57 6 C40.17 6 23.34 6 6 6 C6 7.32 6 8.64 6 10 C4.02 9.34 2.04 8.68 0 8 C0 5.36 0 2.72 0 0 Z " fill="#28739E" transform="translate(146,278)"/>
<path d="M0 0 C1.32 0 2.64 0 4 0 C4 26.07 4 52.14 4 79 C1.525 79.99 1.525 79.99 -1 81 C-1.02312359 70.58657075 -1.04091517 60.17314756 -1.05181217 49.75969791 C-1.05704097 44.92483173 -1.06413854 40.08998306 -1.07543945 35.25512695 C-1.08626847 30.5932288 -1.09227686 25.93134754 -1.09487724 21.26943779 C-1.09673147 19.48675712 -1.10035203 17.70407741 -1.10573006 15.92140388 C-1.11294069 13.4333404 -1.11399093 10.94534757 -1.11352539 8.45727539 C-1.11712067 7.71281158 -1.12071594 6.96834778 -1.12442017 6.20132446 C-1.11405216 1.11405216 -1.11405216 1.11405216 0 0 Z " fill="#EDF8F7" transform="translate(318,217)"/>
<path d="M0 0 C0 26.4 0 52.8 0 80 C-2.475 80.99 -2.475 80.99 -5 82 C-5.0694096 71.60387983 -5.12276514 61.20781448 -5.15543652 50.81151009 C-5.17111454 45.98444581 -5.1923916 41.15753966 -5.22631836 36.33056641 C-5.25883589 31.6751334 -5.2768369 27.01985281 -5.28463173 22.36431503 C-5.29018896 20.58523025 -5.30104043 18.80615411 -5.31719017 17.02713394 C-5.33886371 14.54150397 -5.34197121 12.05650953 -5.34057617 9.57080078 C-5.351362 8.82993225 -5.36214783 8.08906372 -5.3732605 7.32574463 C-5.36076355 5.27761841 -5.36076355 5.27761841 -5 2 C-2 0 -2 0 0 0 Z " fill="#E6F3F1" transform="translate(304,226)"/>
<path d="M0 0 C0 14.85 0 29.7 0 45 C-1.65 45.66 -3.3 46.32 -5 47 C-5 32.81 -5 18.62 -5 4 C-15.52565835 5.57697505 -15.52565835 5.57697505 -18 10 C-18.33 8.35 -18.66 6.7 -19 5 C-17.89591797 4.70996094 -17.89591797 4.70996094 -16.76953125 4.4140625 C-15.79371094 4.15367187 -14.81789062 3.89328125 -13.8125 3.625 C-12.84957031 3.36976563 -11.88664063 3.11453125 -10.89453125 2.8515625 C-8.00233417 2.05531612 -8.00233417 2.05531612 -5.32421875 0.8984375 C-3 0 -3 0 0 0 Z " fill="#FCFCFC" transform="translate(267,284)"/>
<path d="M0 0 C0.46148437 0.30292969 0.92296875 0.60585937 1.3984375 0.91796875 C6.74852175 4.35428769 12.2737871 7.24249993 18 10 C18.99 9.34 19.98 8.68 21 8 C21.61875 8.99 22.2375 9.98 22.875 11 C23.57625 11.99 24.2775 12.98 25 14 C25.66 14 26.32 14 27 14 C25.87548273 16.9719385 24.77706209 19.33440687 23 22 C19.99695497 20.87385811 17.19454892 19.5767022 14.375 18.0625 C9.48347776 15.56051449 4.31723927 14.29021247 -1 13 C-1.38218767 11.34385343 -1.71395102 9.67542976 -2 8 C-1.67 7.67 -1.34 7.34 -1 7 C-0.63239269 4.67182036 -0.29758419 2.3381615 0 0 Z " fill="#E6F6F4" transform="translate(250,199)"/>
<path d="M0 0 C2.40972511 2.40972511 3.50946607 4.95412632 5 8 C6.11126659 9.33901792 6.11126659 9.33901792 8.94140625 9.09765625 C10.13636719 9.08605469 11.33132812 9.07445312 12.5625 9.0625 C13.76003906 9.05347656 14.95757812 9.04445313 16.19140625 9.03515625 C17.58166016 9.01775391 17.58166016 9.01775391 19 9 C18 12 18 12 14.9375 13.6875 C13.968125 14.120625 12.99875 14.55375 12 15 C12.02320313 15.96421875 12.04640625 16.9284375 12.0703125 17.921875 C12.08835938 19.18515625 12.10640625 20.4484375 12.125 21.75 C12.14820313 23.00296875 12.17140625 24.2559375 12.1953125 25.546875 C12.01537302 28.72820492 11.68998582 30.36521896 10 33 C9.34 33 8.68 33 8 33 C7.97282308 30.93757383 7.9535242 28.87504297 7.9375 26.8125 C7.92589844 25.66394531 7.91429687 24.51539063 7.90234375 23.33203125 C7.98807168 20.40699414 8.32150977 17.83683709 9 15 C8.38511719 14.85304688 7.77023438 14.70609375 7.13671875 14.5546875 C0.45283019 12.69982847 0.45283019 12.69982847 -2.0625 8.8125 C-2.371875 7.884375 -2.68125 6.95625 -3 6 C-3.89203125 6.01160156 -4.7840625 6.02320313 -5.703125 6.03515625 C-7.45882812 6.04869141 -7.45882812 6.04869141 -9.25 6.0625 C-10.99023438 6.07990234 -10.99023438 6.07990234 -12.765625 6.09765625 C-15.40977128 6.01782092 -17.49826091 5.78643778 -20 5 C-20 4.01 -20 3.02 -20 2 C-16.6546121 0.8848707 -14.08241188 0.86700928 -10.5625 0.875 C-9.42941406 0.87242187 -8.29632813 0.86984375 -7.12890625 0.8671875 C-4.54778817 0.97674807 -2.45055595 1.24135123 0 2 C0 1.34 0 0.68 0 0 Z " fill="#326E9B" transform="translate(237,247)"/>
<path d="M0 0 C3.43841463 1.14613821 4.40543143 2.66483703 6.59375 5.43359375 C8.76062034 7.84724654 11.23377565 9.32739923 14 11 C13.0170928 13.48067056 12.35743011 14.77069148 10.08203125 16.23046875 C9.33308594 16.54628906 8.58414062 16.86210937 7.8125 17.1875 C6.70841797 17.67283203 6.70841797 17.67283203 5.58203125 18.16796875 C3 19 3 19 -4 20 C-4 14.06 -4 8.12 -4 2 C-2.68 1.34 -1.36 0.68 0 0 Z " fill="#BECDD6" transform="translate(252,260)"/>
<path d="M0 0 C0.66 0 1.32 0 2 0 C6.55597797 5.20885955 7.68307254 10.23888093 8 17 C2.06 17 -3.88 17 -10 17 C-10.66 15.02 -11.32 13.04 -12 11 C-11.13375 10.67 -10.2675 10.34 -9.375 10 C-5.50355309 7.70580924 -3.7638303 5.3250694 -1.296875 1.64453125 C-0.86890625 1.10183594 -0.4409375 0.55914062 0 0 Z " fill="#E3EEEF" transform="translate(268,231)"/>
<path d="M0 0 C0.99 1.0209375 0.99 1.0209375 2 2.0625 C5.49468234 5.56725347 9.25130779 8.77221788 13 12 C11.25 16.875 11.25 16.875 9 18 C6.2764805 17.91075148 3.58986689 17.76646668 0.875 17.5625 C0.12089844 17.51029297 -0.63320312 17.45808594 -1.41015625 17.40429688 C-3.2737937 17.27454996 -5.13694996 17.13792512 -7 17 C-6.5163411 12.87643391 -6.01788765 9.36953183 -4.0625 5.6875 C-3.72347656 5.03136719 -3.38445312 4.37523437 -3.03515625 3.69921875 C-2 2 -2 2 0 0 Z " fill="#C6CCD3" transform="translate(224,231)"/>
<path d="M0 0 C1.98 0.66 3.96 1.32 6 2 C5.67 7.61 5.34 13.22 5 19 C-2.92509363 19 -2.92509363 19 -6.3125 17.1875 C-7.29669922 16.68283203 -7.29669922 16.68283203 -8.30078125 16.16796875 C-10 15 -10 15 -12 12 C-11.30132812 11.46890625 -10.60265625 10.9378125 -9.8828125 10.390625 C-8.97273437 9.68421875 -8.06265625 8.9778125 -7.125 8.25 C-6.22007812 7.55390625 -5.31515625 6.8578125 -4.3828125 6.140625 C-2.14952853 4.13433055 -1.08041718 2.75692659 0 0 Z " fill="#E5E6E7" transform="translate(239,260)"/>
<path d="M0 0 C9 1.125 9 1.125 12.5 3.5625 C13.50546875 4.24505859 13.50546875 4.24505859 14.53125 4.94140625 C15.25828125 5.46541016 15.25828125 5.46541016 16 6 C14.15856838 10.15863984 11.51407339 12.13136866 8 15 C6.1873495 17.16220617 6.1873495 17.16220617 5 19 C3.35 18.67 1.7 18.34 0 18 C0 12.06 0 6.12 0 0 Z " fill="#E4F0F2" transform="translate(249,221)"/>
<path d="M0 0 C0.495 8.415 0.495 8.415 1 17 C-0.98 17.66 -2.96 18.32 -5 19 C-5.45890625 18.45730469 -5.9178125 17.91460937 -6.390625 17.35546875 C-7.00421875 16.64003906 -7.6178125 15.92460937 -8.25 15.1875 C-8.85328125 14.47980469 -9.4565625 13.77210938 -10.078125 13.04296875 C-11.92370398 11.08110329 -13.79945332 9.54330375 -16 8 C-14.9664273 5.08887215 -14.30889697 4.15662381 -11.50390625 2.734375 C-10.53324219 2.40953125 -9.56257812 2.0846875 -8.5625 1.75 C-7.59441406 1.41484375 -6.62632812 1.0796875 -5.62890625 0.734375 C-3 0 -3 0 0 0 Z " fill="#F5F9F9" transform="translate(244,221)"/>
<path d="M0 0 C3.3 0 6.6 0 10 0 C10 0.66 10 1.32 10 2 C10.5775 2.226875 11.155 2.45375 11.75 2.6875 C14.73759691 4.43026486 16.21601425 6.02669042 18 9 C17.75 12.8125 17.75 12.8125 17 16 C15.53426066 15.09522263 14.07764244 14.17565859 12.625 13.25 C11.81289062 12.73953125 11.00078125 12.2290625 10.1640625 11.703125 C8 10 8 10 6 6 C-10.83 6 -27.66 6 -45 6 C-45 5.67 -45 5.34 -45 5 C-43.1605481 4.96241577 -43.1605481 4.96241577 -41.28393555 4.92407227 C-36.7384173 4.82996946 -32.19305083 4.72975567 -27.64770508 4.62768555 C-25.67964221 4.58434759 -23.71154202 4.54267168 -21.7434082 4.50268555 C-18.9160639 4.44495555 -16.08890729 4.38126884 -13.26171875 4.31640625 C-12.38037766 4.29969376 -11.49903656 4.28298126 -10.59098816 4.26576233 C-9.77036392 4.24581711 -8.94973969 4.22587189 -8.10424805 4.20532227 C-7.38254929 4.18977798 -6.66085052 4.1742337 -5.9172821 4.15821838 C-3.77891856 4.05804743 -3.77891856 4.05804743 -1 3 C-0.67 2.01 -0.34 1.02 0 0 Z " fill="#3DA9BC" transform="translate(197,278)"/>
<path d="M0 0 C-0.125 2.1875 -0.125 2.1875 -1 5 C-2.44355489 6.2831599 -3.89516294 7.56274416 -5.43359375 8.73046875 C-7.66122634 10.53590664 -9.29752818 12.70821101 -11 15 C-14 14 -14 14 -15.16796875 12.14453125 C-15.50441406 11.37496094 -15.84085938 10.60539062 -16.1875 9.8125 C-16.53167969 9.05582031 -16.87585938 8.29914063 -17.23046875 7.51953125 C-18.12776284 4.58169018 -18.1282059 2.05483718 -18 -1 C-15.56304285 -1.22181406 -13.126474 -1.42791119 -10.6875 -1.625 C-9.99720703 -1.68945312 -9.30691406 -1.75390625 -8.59570312 -1.8203125 C-4.7440028 -2.11802847 -3.31145584 -2.20763723 0 0 Z " fill="#D4D5D9" transform="translate(236,254)"/>
<path d="M0 0 C2.95064148 -0.2208564 5.68368231 -0.28060989 8.625 -0.1875 C9.42679687 -0.17396484 10.22859375 -0.16042969 11.0546875 -0.14648438 C13.03674378 -0.11109051 15.01845551 -0.05728234 17 0 C16.53343846 4.82507316 15.78322852 8.001918 12.9375 11.9375 C12.38964844 12.70964844 11.84179688 13.48179687 11.27734375 14.27734375 C10.85582031 14.84582031 10.43429687 15.41429687 10 16 C8.33333333 14.33333333 6.66666667 12.66666667 5 11 C3.6696875 9.700625 3.6696875 9.700625 2.3125 8.375 C0 6 0 6 -2 3 C-1.34 2.01 -0.68 1.02 0 0 Z " fill="#AACDD6" transform="translate(259,253)"/>
<path d="M0 0 C2 1.5625 2 1.5625 3 4 C2.875 7.625 2.875 7.625 2 11 C-1.69486103 13.46324069 -3.63293092 13.38991688 -8 13 C-9.9375 11.9375 -9.9375 11.9375 -11 10 C-11.4375 6.5 -11.4375 6.5 -11 3 C-8.00973264 -0.70793152 -4.51107769 -0.57413716 0 0 Z " fill="#C3CED8" transform="translate(251,244)"/>
<path d="M0 0 C0 10.23 0 20.46 0 31 C-1.65 31.66 -3.3 32.32 -5 33 C-5.0989211 28.78253675 -5.17149012 24.56568879 -5.21972656 20.34741211 C-5.23983525 18.91272214 -5.26712673 17.47811407 -5.30175781 16.04370117 C-5.3503146 13.98075161 -5.37297406 11.91888569 -5.390625 9.85546875 C-5.41157227 8.61434326 -5.43251953 7.37321777 -5.45410156 6.09448242 C-5 3 -5 3 -3.03808594 1.0715332 C-1 0 -1 0 0 0 Z " fill="#EEF3F5" transform="translate(286,286)"/>
<path d="M0 0 C0.33 0.66 0.66 1.32 1 2 C0.01 2.495 0.01 2.495 -1 3 C-1.33 12.57 -1.66 22.14 -2 32 C-3.65 30.68 -5.3 29.36 -7 28 C-7.99 27.67 -8.98 27.34 -10 27 C-11.5 24.9375 -11.5 24.9375 -12 22 C-10.97856172 20.0180349 -9.72371599 18.28581802 -8.4375 16.46484375 C-6.10946436 12.47302178 -5.14645265 8.10867371 -3.9921875 3.66015625 C-3.66476562 2.78230469 -3.33734375 1.90445313 -3 1 C-2.01 0.67 -1.02 0.34 0 0 Z " fill="#E2F0F1" transform="translate(288,252)"/>
<path d="M0 0 C2.7912125 1.98322993 3.82597224 3.12986121 4.5 6.5 C3.82597224 9.87013879 2.7912125 11.01677007 0 13 C-3.17235276 13.45319325 -5.06487736 13.52990283 -7.875 11.9375 C-9.64273274 8.8930714 -9.36823916 6.4368988 -9 3 C-6.84532543 -0.71082843 -4.00794956 -0.57256422 0 0 Z " fill="#F2F6F7" transform="translate(163,310)"/>
<path d="M0 0 C0.33 0 0.66 0 1 0 C1.3125 2.1875 1.3125 2.1875 1 5 C-1.5 7.8125 -1.5 7.8125 -4 10 C-3.34 11.32 -2.68 12.64 -2 14 C-1.01 13.67 -0.02 13.34 1 13 C2 15 2 15 1.4375 18.5625 C0.83379637 22.69786988 1.45607115 26.01112714 2.52734375 30.01953125 C3 32 3 32 3 35 C1.68 34.67 0.36 34.34 -1 34 C-1.07476562 33.33355469 -1.14953125 32.66710937 -1.2265625 31.98046875 C-2.19795369 25.171207 -4.19514975 20.23066352 -7.85546875 14.41015625 C-9 12 -9 12 -8.82421875 9.7734375 C-7.60537304 7.15089744 -5.45014248 6.45841814 -3 5 C-1.26509754 2.41556677 -1.26509754 2.41556677 0 0 Z " fill="#D3F3F4" transform="translate(285,214)"/>
<path d="M0 0 C1.07495117 1.62646484 1.07495117 1.62646484 2.04296875 3.7109375 C2.39423828 4.46117187 2.74550781 5.21140625 3.10742188 5.984375 C3.64206055 7.16773438 3.64206055 7.16773438 4.1875 8.375 C4.55552734 9.15617187 4.92355469 9.93734375 5.30273438 10.7421875 C8 16.58709705 8 16.58709705 8 20 C7.56131592 19.61666504 7.12263184 19.23333008 6.6706543 18.83837891 C4.67783694 17.09878084 2.68269819 15.36186674 0.6875 13.625 C-0.00279297 13.02171875 -0.69308594 12.4184375 -1.40429688 11.796875 C-2.07138672 11.21679688 -2.73847656 10.63671875 -3.42578125 10.0390625 C-4.03848877 9.50490723 -4.65119629 8.97075195 -5.2824707 8.42041016 C-7.15400436 6.8230795 -7.15400436 6.8230795 -10 5 C-10 4.34 -10 3.68 -10 3 C-3.375 -1.125 -3.375 -1.125 0 0 Z " fill="#1C699D" transform="translate(315,315)"/>
<path d="M0 0 C1.8125 1.125 1.8125 1.125 3 3 C3.3125 6.0625 3.3125 6.0625 3 9 C1 11 1 11 -2.5 11.25 C-6 11 -6 11 -8 9 C-8.333728 5.86295684 -8.52849028 3.83445834 -6.8125 1.125 C-4.34492892 -0.40659584 -2.85480169 -0.42822025 0 0 Z " fill="#EFF4F8" transform="translate(59,238)"/>
<path d="M0 0 C0.99 0 1.98 0 3 0 C3.33 0.66 3.66 1.32 4 2 C4.66 1.34 5.32 0.68 6 0 C6.99 0.33 7.98 0.66 9 1 C8.34 1 7.68 1 7 1 C7 6.94 7 12.88 7 19 C5.02 19 3.04 19 1 19 C1.33 18.34 1.66 17.68 2 17 C2.07181821 14.28239892 2.09299506 11.59140612 2.0625 8.875 C2.05798828 8.12089844 2.05347656 7.36679688 2.04882812 6.58984375 C2.03703499 4.72652873 2.01909942 2.86325445 2 1 C1.34 0.67 0.68 0.34 0 0 Z " fill="#3DA6BD" transform="translate(242,220)"/>
<path d="M0 0 C1.98 0.99 1.98 0.99 4 2 C3.34 2.66 2.68 3.32 2 4 C1.71449629 6.26734049 1.71449629 6.26734049 1.78881836 8.91772461 C1.79219711 9.94316879 1.79557587 10.96861298 1.79905701 12.02513123 C1.81251663 13.13961136 1.82597626 14.25409149 1.83984375 15.40234375 C1.84504532 16.54981583 1.85024689 17.6972879 1.85560608 18.87953186 C1.87346912 22.56564773 1.90459563 26.25149002 1.9375 29.9375 C1.96523733 33.59134998 1.98999989 37.24515525 2.00868225 40.89906311 C2.02080157 43.17419586 2.03826491 45.44930872 2.06199646 47.72434998 C2.10425662 54.5433536 1.75185164 61.22206245 1 68 C0.67 68 0.34 68 0 68 C0 45.56 0 23.12 0 0 Z " fill="#384678" transform="translate(161,204)"/>
<path d="M0 0 C6.63498399 0.35544557 10.63187218 2.13095043 16 6 C15.34 7.32 14.68 8.64 14 10 C10.27792613 10 8.53604411 8.82035432 5.3125 7 C4.31863281 6.443125 3.32476562 5.88625 2.30078125 5.3125 C1.54152344 4.879375 0.78226563 4.44625 0 4 C0 2.68 0 1.36 0 0 Z " fill="#CFE4EA" transform="translate(249,221)"/>
<path d="M0 0 C2.97 0.33 5.94 0.66 9 1 C9 4.96 9 8.92 9 13 C4.03458857 10.51729429 1.06788041 7.60182062 -2 3 C-1.34 2.01 -0.68 1.02 0 0 Z " fill="#F4F7F8" transform="translate(259,253)"/>
<path d="M0 0 C0.33 0.66 0.66 1.32 1 2 C1.99 2.33 2.98 2.66 4 3 C4.70151152 4.3153341 5.36525925 5.65117592 6 7 C6.53625 7.515625 7.0725 8.03125 7.625 8.5625 C9 10 9 10 9 13 C9.66 13.66 10.32 14.32 11 15 C9.68 15.33 8.36 15.66 7 16 C6.54109375 15.45730469 6.0821875 14.91460937 5.609375 14.35546875 C4.99578125 13.64003906 4.3821875 12.92460937 3.75 12.1875 C3.14671875 11.47980469 2.5434375 10.77210938 1.921875 10.04296875 C0.07629602 8.08110329 -1.79945332 6.54330375 -4 5 C-2.25 1.125 -2.25 1.125 0 0 Z " fill="#D4E0E5" transform="translate(232,224)"/>
<path d="M0 0 C0 4.24490961 -2.41866103 6.36343917 -5 9.5 C-6.01607223 10.7590069 -7.03037937 12.01944023 -8.04296875 13.28125 C-8.54618652 13.90773438 -9.0494043 14.53421875 -9.56787109 15.1796875 C-11.57052075 17.72516242 -13.44228324 20.35627611 -15.3125 23 C-18.24500496 27.09341414 -21.30607149 30.58311613 -25 34 C-25.66 33.67 -26.32 33.34 -27 33 C-26.443125 32.32195312 -25.88625 31.64390625 -25.3125 30.9453125 C-21.51694225 26.31627078 -17.73221921 21.68032328 -14 17 C-2.16666667 2.16666667 -2.16666667 2.16666667 0 0 Z " fill="#2593B0" transform="translate(166,111)"/>
<path d="M0 0 C0.66 0.33 1.32 0.66 2 1 C1.34 1.66 0.68 2.32 0 3 C-0.3293538 4.9368613 -0.3293538 4.9368613 -0.31884766 7.17431641 C-0.33871735 8.03505768 -0.35858704 8.89579895 -0.37905884 9.78262329 C-0.39638565 11.1779982 -0.39638565 11.1779982 -0.4140625 12.6015625 C-0.43342865 13.55316254 -0.4527948 14.50476257 -0.4727478 15.48519897 C-0.53264132 18.53170747 -0.57896795 21.57825354 -0.625 24.625 C-0.66317079 26.6875167 -0.70222198 28.7500173 -0.7421875 30.8125 C-0.83835086 35.87486966 -0.92234563 40.93731395 -1 46 C-1.33 46 -1.66 46 -2 46 C-2 32.14 -2 18.28 -2 4 C-12.52565835 5.57697505 -12.52565835 5.57697505 -15 10 C-15.33 8.35 -15.66 6.7 -16 5 C-14.89591797 4.70996094 -14.89591797 4.70996094 -13.76953125 4.4140625 C-12.79371094 4.15367187 -11.81789062 3.89328125 -10.8125 3.625 C-9.84957031 3.36976563 -8.88664063 3.11453125 -7.89453125 2.8515625 C-4.9870402 2.05677046 -4.9870402 2.05677046 -2.26171875 0.8359375 C-1.51535156 0.56007813 -0.76898438 0.28421875 0 0 Z " fill="#CBD4DC" transform="translate(264,284)"/>
<path d="M0 0 C3.81018141 3.81018141 3.62255215 7.86670922 4 13 C-0.95 13 -5.9 13 -11 13 C-11 12.67 -11 12.34 -11 12 C-9.02 12 -7.04 12 -5 12 C-5 11.01 -5 10.02 -5 9 C-4.34 9 -3.68 9 -3 9 C-2.01 6.03 -1.02 3.06 0 0 Z " fill="#B1D2DB" transform="translate(272,235)"/>
<path d="M0 0 C1.32 1.32 2.64 2.64 4 4 C2.90453883 5.48562542 1.79831177 6.96331709 0.6875 8.4375 C0.07261719 9.26121094 -0.54226563 10.08492187 -1.17578125 10.93359375 C-3 13 -3 13 -6 14 C-6 13.34 -6 12.68 -6 12 C-7.32 11.67 -8.64 11.34 -10 11 C-6.83451967 7.11098131 -3.59634744 3.49359465 0 0 Z " fill="#3A9EBB" transform="translate(265,227)"/>
<path d="M0 0 C9.41002278 -0.18451025 9.41002278 -0.18451025 14 1 C14 2.32 14 3.64 14 5 C9.57117061 6.10720735 5.53942698 6.22325051 1 6 C0.34 5.34 -0.32 4.68 -1 4 C-0.625 1.875 -0.625 1.875 0 0 Z " fill="#2C4E85" transform="translate(195,248)"/>
<path d="M0 0 C2.19677731 4.39355462 3.20943127 6.97364948 3 12 C2.67 12.66 2.34 13.32 2 14 C0.35 14 -1.3 14 -3 14 C-4.4783226 11.04335481 -4.06032783 8.25770263 -4 5 C-3.34 5 -2.68 5 -2 5 C-2 4.01 -2 3.02 -2 2 C-1.34 2 -0.68 2 0 2 C0 1.34 0 0.68 0 0 Z " fill="#2A5989" transform="translate(247,289)"/>
<path d="M0 0 C1.32 0.33 2.64 0.66 4 1 C4 4.96 4 8.92 4 13 C2.35 13.66 0.7 14.32 -1 15 C-1.22134176 12.87631556 -1.42670007 10.75095976 -1.625 8.625 C-1.74101562 7.44164062 -1.85703125 6.25828125 -1.9765625 5.0390625 C-1.98429688 4.03617188 -1.99203125 3.03328125 -2 2 C-1.34 1.34 -0.68 0.68 0 0 Z " fill="#2DADBE" transform="translate(245,197)"/>
<path d="M0 0 C0.75390625 1.734375 0.75390625 1.734375 1 4 C-0.66015625 6.078125 -0.66015625 6.078125 -3.0625 8.25 C-7.27120465 12.23138264 -10.61913466 16.3234223 -14 21 C-15.38126571 22.84433371 -16.77763796 24.6774329 -18.1875 26.5 C-18.84105469 27.3559375 -19.49460938 28.211875 -20.16796875 29.09375 C-20.77253906 29.7228125 -21.37710938 30.351875 -22 31 C-22.99 31 -23.98 31 -25 31 C-24.32195312 30.21238281 -23.64390625 29.42476562 -22.9453125 28.61328125 C-17.15314653 21.84754513 -11.57498575 14.97032718 -6.19140625 7.875 C-4.16566216 5.21733931 -2.09849346 2.60041103 0 0 Z " fill="#2CB2BB" transform="translate(192,78)"/>
<path d="M0 0 C1.63001953 0.01353516 1.63001953 0.01353516 3.29296875 0.02734375 C4.12441406 0.03894531 4.95585937 0.05054688 5.8125 0.0625 C5.8125 1.7125 5.8125 3.3625 5.8125 5.0625 C4.06258666 5.08965383 2.31255055 5.10896551 0.5625 5.125 C-0.89929688 5.14240234 -0.89929688 5.14240234 -2.390625 5.16015625 C-4.84508678 5.07445577 -6.84918914 4.76956066 -9.1875 4.0625 C-9.1875 3.0725 -9.1875 2.0825 -9.1875 1.0625 C-5.90230525 -0.03256492 -3.45086585 -0.03710608 0 0 Z " fill="#2E5D92" transform="translate(226.1875,247.9375)"/>
<path d="M0 0 C4.95 0 9.9 0 15 0 C14.67 1.65 14.34 3.3 14 5 C9.38 5 4.76 5 0 5 C0.66 4.67 1.32 4.34 2 4 C2 3.01 2 2.02 2 1 C1.34 0.67 0.68 0.34 0 0 Z " fill="#2498B5" transform="translate(285,248)"/>
<path d="M0 0 C1.98 0.66 3.96 1.32 6 2 C6 3.32 6 4.64 6 6 C5.484375 6.495 4.96875 6.99 4.4375 7.5 C3.963125 7.995 3.48875 8.49 3 9 C3.22757731 11.16299211 3.22757731 11.16299211 4 13 C2.35 13.33 0.7 13.66 -1 14 C-1.33 13.34 -1.66 12.68 -2 12 C-1.01 11.01 -0.02 10.02 1 9 C-0.98 9.33 -2.96 9.66 -5 10 C-4.360625 9.0925 -3.72125 8.185 -3.0625 7.25 C-1.38571047 4.60778619 -0.46310002 3.0101501 0 0 Z " fill="#4281A5" transform="translate(255,247)"/>
<path d="M0 0 C0 0.99 0 1.98 0 3 C-1.98 3 -3.96 3 -6 3 C-6.69159401 4.84725052 -6.69159401 4.84725052 -7 7 C-6.01 8.485 -6.01 8.485 -5 10 C-5 10.99 -5 11.98 -5 13 C-7.86724686 12.42655063 -8.8614515 12.1385485 -11 10 C-11.375 6.5625 -11.375 6.5625 -11 3 C-7.97607007 -0.74967312 -4.54317809 -0.26210643 0 0 Z " fill="#D8DFE4" transform="translate(251,244)"/>
<path d="M0 0 C0.66 0 1.32 0 2 0 C4 3 4 3 3.75 5.9375 C3.09911834 8.59526679 2.35855538 10.64517067 1 13 C0.34 13 -0.32 13 -1 13 C-1.33 11.68 -1.66 10.36 -2 9 C-2.99 9.495 -2.99 9.495 -4 10 C-4.8125 8.375 -4.8125 8.375 -5 6 C-2.6875 2.75 -2.6875 2.75 0 0 Z " fill="#CEE4E6" transform="translate(268,231)"/>
<path d="M0 0 C0.66 0.33 1.32 0.66 2 1 C-3.81919973 4.68469819 -9.37269552 8.02343551 -16 10 C-19 9 -19 9 -21 6 C-19.90300781 5.73445313 -18.80601562 5.46890625 -17.67578125 5.1953125 C-16.22130753 4.83873185 -14.76688302 4.4819504 -13.3125 4.125 C-12.59126953 3.95097656 -11.87003906 3.77695312 -11.12695312 3.59765625 C-7.9996197 2.82653294 -5.09016946 2.03723597 -2.10546875 0.8046875 C-1.41066406 0.53914063 -0.71585937 0.27359375 0 0 Z " fill="#3B9EB8" transform="translate(283,388)"/>
<path d="M0 0 C1.79158489 -0.02696365 3.58328473 -0.04637917 5.375 -0.0625 C6.37273437 -0.07410156 7.37046875 -0.08570313 8.3984375 -0.09765625 C11 0 11 0 13 1 C13 1.99 13 2.98 13 4 C9.98509443 5.00496852 7.95818308 5.10335303 4.8125 5.0625 C3.46091797 5.04896484 3.46091797 5.04896484 2.08203125 5.03515625 C1.39496094 5.02355469 0.70789063 5.01195312 0 5 C0 3.35 0 1.7 0 0 Z " fill="#2075A0" transform="translate(261,248)"/>
<path d="M0 0 C0.99 0 1.98 0 3 0 C3.05423638 1.91635217 3.09289963 3.83314925 3.125 5.75 C3.14820313 6.81734375 3.17140625 7.8846875 3.1953125 8.984375 C3.00487687 11.92470106 2.52670104 13.52361878 1 16 C0.34 16 -0.32 16 -1 16 C-1.02701408 13.89590361 -1.04640223 11.79170822 -1.0625 9.6875 C-1.07410156 8.51574219 -1.08570313 7.34398437 -1.09765625 6.13671875 C-1 3 -1 3 0 0 Z " fill="#30669B" transform="translate(246,264)"/>
<path d="M0 0 C0.66 0.66 1.32 1.32 2 2 C1.73292727 3.90289317 1.46144556 5.80534867 1.16015625 7.703125 C0.93038061 10.99844387 1.68054542 13.85104744 2.52734375 17.01953125 C3 19 3 19 3 22 C1.68 21.67 0.36 21.34 -1 21 C-1.66 17.04 -2.32 13.08 -3 9 C-2.34 9 -1.68 9 -1 9 C-1.33 6.36 -1.66 3.72 -2 1 C-1.34 0.67 -0.68 0.34 0 0 Z " fill="#A2D9DF" transform="translate(285,227)"/>
<path d="M0 0 C-1.89399715 1.75202288 -3.79011738 3.50164978 -5.6875 5.25 C-6.21794922 5.74113281 -6.74839844 6.23226563 -7.29492188 6.73828125 C-14.11493751 13.01436926 -14.11493751 13.01436926 -17 15 C-17.99 14.67 -18.98 14.34 -20 14 C-19.01 13.67 -18.02 13.34 -17 13 C-16.690625 12.195625 -16.38125 11.39125 -16.0625 10.5625 C-14.75594785 7.41140365 -13.96497812 7.44013223 -11 6 C-10.175 4.989375 -9.35 3.97875 -8.5 2.9375 C-6 0 -6 0 -3.8125 -0.9375 C-2 -1 -2 -1 0 0 Z " fill="#24437B" transform="translate(96,308)"/>
<path d="M0 0 C6.6 0 13.2 0 20 0 C18.27588894 3.44822212 14.4338875 3.88818115 10.9453125 5.11328125 C7.25568468 6.22408432 3.83544305 6.7105326 0 7 C0.33 6.34 0.66 5.68 1 5 C3.64860427 4.40644386 6.29197322 4.25790731 9 4 C9 3.34 9 2.68 9 2 C6.03 1.67 3.06 1.34 0 1 C0 0.67 0 0.34 0 0 Z " fill="#579BB8" transform="translate(282,363)"/>
<path d="M0 0 C0.66 0 1.32 0 2 0 C1.48164329 4.45786773 0.3590115 7.2255816 -2 11 C-2.33 12.051875 -2.66 13.10375 -3 14.1875 C-4 17 -4 17 -7 19 C-6.4253379 14.21357393 -5.01754357 10.46211213 -2.9375 6.125 C-2.38964844 4.97257812 -1.84179688 3.82015625 -1.27734375 2.6328125 C-0.85582031 1.76398438 -0.43429688 0.89515625 0 0 Z " fill="#2B4B84" transform="translate(81,297)"/>
<path d="M0 0 C3.3 0 6.6 0 10 0 C10 0.66 10 1.32 10 2 C10.99 2.33 11.98 2.66 13 3 C12.34 3.66 11.68 4.32 11 5 C10.01 4.34 9.02 3.68 8 3 C7.67 3.33 7.34 3.66 7 4 C4.32941149 4.14115161 1.67567762 4.04247107 -1 4 C-0.67 2.68 -0.34 1.36 0 0 Z " fill="#33B3C1" transform="translate(197,278)"/>
<path d="M0 0 C-2.28560647 1.5306999 -4.57762667 3.04965044 -6.875 4.5625 C-7.52597656 5.00013672 -8.17695313 5.43777344 -8.84765625 5.88867188 C-10.52625497 6.98754836 -12.26023387 8.0007818 -14 9 C-14.66 8.67 -15.32 8.34 -16 8 C-15.90234375 6.17578125 -15.90234375 6.17578125 -15 4 C-12.12890625 2.48046875 -12.12890625 2.48046875 -8.5625 1.1875 C-6.80099609 0.52814453 -6.80099609 0.52814453 -5.00390625 -0.14453125 C-2 -1 -2 -1 0 0 Z " fill="#4BA5C0" transform="translate(313,369)"/>
<path d="M0 0 C0 3.96 0 7.92 0 12 C-0.33 12 -0.66 12 -1 12 C-1 9.69 -1 7.38 -1 5 C-5.455 4.01 -5.455 4.01 -10 3 C-6.41600853 0.61067235 -4.26804999 0 0 0 Z " fill="#D8E9EF" transform="translate(244,221)"/>
<path d="M0 0 C0 4.38274199 -2.62589417 6.78069843 -5.25 10.0625 C-5.98669922 11.01866211 -5.98669922 11.01866211 -6.73828125 11.99414062 C-7.22167969 12.60580078 -7.70507812 13.21746094 -8.203125 13.84765625 C-8.64301758 14.40461182 -9.08291016 14.96156738 -9.53613281 15.53540039 C-11.20614615 17.20624929 -12.84908507 18.05372403 -15 19 C-12.06159558 14.39649975 -8.81322221 10.25871185 -5.25 6.125 C-4.49009766 5.23554687 -4.49009766 5.23554687 -3.71484375 4.328125 C-2.47944798 2.88294505 -1.24013143 1.44111825 0 0 Z " fill="#2B9FB4" transform="translate(166,111)"/>
<path d="M0 0 C2.97 0 5.94 0 9 0 C9.33 0.99 9.66 1.98 10 3 C7.36 3.99 4.72 4.98 2 6 C1.34 5.34 0.68 4.68 0 4 C0.66 3.01 1.32 2.02 2 1 C1.34 0.67 0.68 0.34 0 0 Z " fill="#3A8DAE" transform="translate(241,239)"/>
<path d="M0 0 C1 3 1 3 -0.25 6 C-1.69149811 8.47113961 -2.85630917 10.16255071 -5 12 C-5.99 11.67 -6.98 11.34 -8 11 C-8 10.01 -8 9.02 -8 8 C-7.01 8 -6.02 8 -5 8 C-4.67 7.01 -4.34 6.02 -4 5 C-3.01 5 -2.02 5 -1 5 C-0.67 3.35 -0.34 1.7 0 0 Z " fill="#254A81" transform="translate(111,288)"/>
<path d="M0 0 C2 3 2 3 2 9 C-2.95 9 -7.9 9 -13 9 C-13 8.67 -13 8.34 -13 8 C-9.37 8 -5.74 8 -2 8 C-1.67 6.68 -1.34 5.36 -1 4 C-0.5 2 -0.5 2 0 0 Z " fill="#8DC0CE" transform="translate(274,239)"/>
<path d="M0 0 C2.475 0.99 2.475 0.99 5 2 C3.25 6.875 3.25 6.875 1 8 C-1.1640625 7.66015625 -1.1640625 7.66015625 -3.625 7.0625 C-4.44226563 6.86785156 -5.25953125 6.67320312 -6.1015625 6.47265625 C-7.04128906 6.23869141 -7.04128906 6.23869141 -8 6 C-8 5.67 -8 5.34 -8 5 C-5.36 5 -2.72 5 0 5 C0 3.35 0 1.7 0 0 Z " fill="#DADEE2" transform="translate(232,241)"/>
<path d="M0 0 C1.65 1.65 3.3 3.3 5 5 C4.01 5 3.02 5 2 5 C2 6.65 2 8.3 2 10 C1.34 10 0.68 10 0 10 C-0.33 8.68 -0.66 7.36 -1 6 C-2.32 5.67 -3.64 5.34 -5 5 C-4.67 4.34 -4.34 3.68 -4 3 C-3.34 3 -2.68 3 -2 3 C-1.34 2.01 -0.68 1.02 0 0 Z " fill="#40BACA" transform="translate(275,217)"/>
<path d="M0 0 C0.33 1.32 0.66 2.64 1 4 C-0.87109375 6.359375 -0.87109375 6.359375 -3.4375 8.75 C-4.70400391 9.94882813 -4.70400391 9.94882813 -5.99609375 11.171875 C-6.65738281 11.77515625 -7.31867188 12.3784375 -8 13 C-8.66 12.67 -9.32 12.34 -10 12 C-6.7 8.04 -3.4 4.08 0 0 Z " fill="#32BDC2" transform="translate(192,78)"/>
<path d="M0 0 C-1.5506316 1.03877263 -3.11609681 2.05542555 -4.6875 3.0625 C-5.55761719 3.63097656 -6.42773438 4.19945312 -7.32421875 4.78515625 C-10.42822437 6.19442012 -11.8040576 6.00772958 -15 5 C-12.62383533 2.62383533 -10.64650479 1.95931819 -7.5 0.8125 C-6.5203125 0.44769531 -5.540625 0.08289063 -4.53125 -0.29296875 C-2 -1 -2 -1 0 0 Z " fill="#4FABC4" transform="translate(285,389)"/>
<path d="M0 0 C4.29 0 8.58 0 13 0 C12.01 0.33 11.02 0.66 10 1 C9.67 1.99 9.34 2.98 9 4 C4.80884715 3.41789544 3.62457917 2.71843438 0 0 Z " fill="#266792" transform="translate(160,291)"/>
<path d="M0 0 C0.33 0.66 0.66 1.32 1 2 C0.2578125 3.8046875 0.2578125 3.8046875 -0.875 5.875 C-2.03074721 8.00060501 -2.9501638 9.78752009 -3.50390625 12.1484375 C-4.20964375 14.78244992 -5.77306191 15.56326575 -8 17 C-6.3341708 10.83643195 -3.12194714 5.51740344 0 0 Z " fill="#38528A" transform="translate(72,318)"/>
<path d="M0 0 C-0.33 1.65 -0.66 3.3 -1 5 C-2.98 5.66 -4.96 6.32 -7 7 C-3.86206897 0 -3.86206897 0 0 0 Z M-8 7 C-8 7.99 -8 8.98 -8 10 C-9.32 10.33 -10.64 10.66 -12 11 C-10.68 9.68 -9.36 8.36 -8 7 Z " fill="#3F6494" transform="translate(235,259)"/>
<path d="M0 0 C0 0.66 0 1.32 0 2 C-0.77085937 2.18175781 -1.54171875 2.36351562 -2.3359375 2.55078125 C-3.33882813 2.80214844 -4.34171875 3.05351562 -5.375 3.3125 C-6.87160156 3.67794922 -6.87160156 3.67794922 -8.3984375 4.05078125 C-11.3084986 4.82193858 -11.3084986 4.82193858 -13 8 C-13.33 6.35 -13.66 4.7 -14 3 C-12.23050388 2.49528803 -10.45934777 1.99639315 -8.6875 1.5 C-7.70136719 1.2215625 -6.71523437 0.943125 -5.69921875 0.65625 C-3 0 -3 0 0 0 Z " fill="#A9B7C6" transform="translate(262,286)"/>
<path d="M0 0 C0.99 0.33 1.98 0.66 3 1 C3 3.31 3 5.62 3 8 C2.01 7.67 1.02 7.34 0 7 C-1.1875 3.9375 -1.1875 3.9375 -2 1 C-1.34 0.67 -0.68 0.34 0 0 Z " fill="#D1F1F2" transform="translate(281,228)"/>
<path d="M0 0 C0.66 0.33 1.32 0.66 2 1 C-0.64 3.97 -3.28 6.94 -6 10 C-6.99 9.67 -7.98 9.34 -9 9 C-6 6 -3 3 0 0 Z " fill="#E5E8EA" transform="translate(97,306)"/>
<path d="M0 0 C4.47238653 1.41807378 8.71146306 3.11304374 13 5 C12.01 6.485 12.01 6.485 11 8 C9.16399255 6.85845641 7.33125195 5.71165684 5.5 4.5625 C4.4790625 3.92441406 3.458125 3.28632813 2.40625 2.62890625 C1.6121875 2.09136719 0.818125 1.55382812 0 1 C0 0.67 0 0.34 0 0 Z " fill="#556497" transform="translate(66,368)"/>
<path d="M0 0 C-1.25942386 1.19959375 -2.53295286 2.38439443 -3.8125 3.5625 C-4.87404297 4.55443359 -4.87404297 4.55443359 -5.95703125 5.56640625 C-6.63121094 6.03949219 -7.30539063 6.51257813 -8 7 C-8.99 6.67 -9.98 6.34 -11 6 C-10.01 5.67 -9.02 5.34 -8 5 C-7.67 4.175 -7.34 3.35 -7 2.5 C-6.67 1.675 -6.34 0.85 -6 0 C-3 -1 -3 -1 0 0 Z " fill="#2F4884" transform="translate(87,316)"/>
<path d="M0 0 C1.66666667 1.66666667 3.33333333 3.33333333 5 5 C5.86625 5.8353125 5.86625 5.8353125 6.75 6.6875 C8 8 8 8 9 10 C8.01 10.33 7.02 10.66 6 11 C3.54711684 8.54711684 1.80968308 5.95581569 0 3 C0 2.01 0 1.02 0 0 Z " fill="#3D86AA" transform="translate(261,260)"/>
<path d="M0 0 C0.66 0.66 1.32 1.32 2 2 C1.7578125 4.3828125 1.7578125 4.3828125 1.125 7.125 C0.92132813 8.03507813 0.71765625 8.94515625 0.5078125 9.8828125 C0.34023438 10.58148438 0.17265625 11.28015625 0 12 C-0.66 12 -1.32 12 -2 12 C-2.33 11.01 -2.66 10.02 -3 9 C-2.34 9 -1.68 9 -1 9 C-1.33 6.36 -1.66 3.72 -2 1 C-1.34 0.67 -0.68 0.34 0 0 Z " fill="#A4E2E6" transform="translate(285,227)"/>
<path d="M0 0 C0.33 0 0.66 0 1 0 C1.3125 2.1875 1.3125 2.1875 1 5 C-1.5 7.8125 -1.5 7.8125 -4 10 C-5.32 9.34 -6.64 8.68 -8 8 C-6.8553125 7.4121875 -6.8553125 7.4121875 -5.6875 6.8125 C-2.74827521 4.83023212 -1.66277918 3.07614147 0 0 Z " fill="#88DCE3" transform="translate(285,214)"/>
<path d="M0 0 C2.64752004 2.57784846 4.94432065 4.91648098 7 8 C4.69 7.34 2.38 6.68 0 6 C0 4.02 0 2.04 0 0 Z " fill="#2F92AE" transform="translate(248,147)"/>
<path d="M0 0 C2.64 0.33 5.28 0.66 8 1 C7.67 1.99 7.34 2.98 7 4 C4.03 3.505 4.03 3.505 1 3 C0.67 2.01 0.34 1.02 0 0 Z " fill="#31427F" transform="translate(78,374)"/>
<path d="M0 0 C0.33 0 0.66 0 1 0 C1 2.97 1 5.94 1 9 C0.34 9 -0.32 9 -1 9 C-2.1875 6.75 -2.1875 6.75 -3 4 C-1.6875 1.6875 -1.6875 1.6875 0 0 Z " fill="#8EBCCA" transform="translate(279,270)"/>
<path d="M0 0 C1.65 0 3.3 0 5 0 C5 0.66 5 1.32 5 2 C4.34 2 3.68 2 3 2 C2.67 3.32 2.34 4.64 2 6 C-0.31 5.67 -2.62 5.34 -5 5 C-4.360625 4.731875 -3.72125 4.46375 -3.0625 4.1875 C-0.66868314 3.11332248 -0.66868314 3.11332248 0 0 Z " fill="#589CBA" transform="translate(250,239)"/>
<path d="M0 0 C0.33 0.66 0.66 1.32 1 2 C0.67 2.66 0.34 3.32 0 4 C-2.06640625 4.6328125 -2.06640625 4.6328125 -4.5625 5.125 C-5.38878906 5.29257812 -6.21507813 5.46015625 -7.06640625 5.6328125 C-7.70449219 5.75398438 -8.34257813 5.87515625 -9 6 C-6.32114278 3.12807199 -3.56170128 1.66212727 0 0 Z " fill="#436493" transform="translate(133,384)"/>
<path d="M0 0 C0.99 0.33 1.98 0.66 3 1 C-0.625 5.875 -0.625 5.875 -4 7 C-3.39816251 4.97954558 -2.72693904 2.97888961 -2 1 C-1.34 0.67 -0.68 0.34 0 0 Z " fill="#284D81" transform="translate(100,300)"/>
<path d="M0 0 C2.31 0.33 4.62 0.66 7 1 C5.68 1.33 4.36 1.66 3 2 C2.67 3.32 2.34 4.64 2 6 C-0.475 5.01 -0.475 5.01 -3 4 C-2.01 3.67 -1.02 3.34 0 3 C0 2.01 0 1.02 0 0 Z " fill="#4077A1" transform="translate(242,256)"/>
<path d="M0 0 C2.03833424 1.2739589 4.03852126 2.61061923 6 4 C6 4.66 6 5.32 6 6 C3.625 5.75 3.625 5.75 1 5 C-0.3125 2.9375 -0.3125 2.9375 -1 1 C-0.67 0.67 -0.34 0.34 0 0 Z " fill="#2B7C9B" transform="translate(231,235)"/>
<path d="M0 0 C0.66 0 1.32 0 2 0 C2.33 1.32 2.66 2.64 3 4 C1.02 4.99 -0.96 5.98 -3 7 C-2.38722388 4.03824877 -1.74627478 2.61941217 0 0 Z " fill="#DEECED" transform="translate(268,231)"/>
<path d="M0 0 C1.32 0 2.64 0 4 0 C4 0.99 4 1.98 4 3 C2 4.6875 2 4.6875 0 6 C-0.66 4.68 -1.32 3.36 -2 2 C-1.34 2 -0.68 2 0 2 C0 1.34 0 0.68 0 0 Z " fill="#3890B2" transform="translate(255,239)"/>
<path d="M0 0 C1.32 1.32 2.64 2.64 4 4 C2.68 5.32 1.36 6.64 0 8 C0 6.68 0 5.36 0 4 C-0.66 3.67 -1.32 3.34 -2 3 C-1.34 2.01 -0.68 1.02 0 0 Z " fill="#46ACC1" transform="translate(265,227)"/>
<path d="M0 0 C0.99 0.33 1.98 0.66 3 1 C1.75023244 4.65316671 1.32901247 5.78065836 -2 8 C-1.125 2.25 -1.125 2.25 0 0 Z " fill="#25427F" transform="translate(76,308)"/>
<path d="M0 0 C0.66 0 1.32 0 2 0 C2.33 1.98 2.66 3.96 3 6 C2.01 6 1.02 6 0 6 C-0.66 5.01 -1.32 4.02 -2 3 C-1.34 2.01 -0.68 1.02 0 0 Z " fill="#DCE8EB" transform="translate(259,253)"/>
<path d="M0 0 C1 3 1 3 0.22265625 5.04296875 C-0.16019531 5.75066406 -0.54304687 6.45835937 -0.9375 7.1875 C-1.31777344 7.90292969 -1.69804687 8.61835938 -2.08984375 9.35546875 C-2.54037109 10.16951172 -2.54037109 10.16951172 -3 11 C-4.1015625 7.2578125 -4.1015625 7.2578125 -3.1875 4.9375 C-2.16380191 3.26725575 -1.08665664 1.62998496 0 0 Z " fill="#318BAB" transform="translate(162,178)"/>
<path d="M0 0 C5.75 1.75 5.75 1.75 8 4 C6.375 4.6875 6.375 4.6875 4 5 C0.75 3.5625 0.75 3.5625 -2 2 C-1.34 1.34 -0.68 0.68 0 0 Z " fill="#D6E6EC" transform="translate(212,211)"/>
<path d="M0 0 C0.99 0 1.98 0 3 0 C1.55746343 3.36591866 -0.33264727 5.51047079 -3 8 C-1.125 1.125 -1.125 1.125 0 0 Z " fill="#C7CCD1" transform="translate(173,171)"/>
<path d="M0 0 C1.98 0.66 3.96 1.32 6 2 C6 2.99 6 3.98 6 5 C4.35 5 2.7 5 1 5 C0.67 3.35 0.34 1.7 0 0 Z " fill="#3A7C9F" transform="translate(255,247)"/>
<path d="M0 0 C0.66 0 1.32 0 2 0 C2.12375 0.78375 2.2475 1.5675 2.375 2.375 C2.79117993 5.14057822 2.79117993 5.14057822 5 7 C3.68 7.33 2.36 7.66 1 8 C0.67 5.36 0.34 2.72 0 0 Z " fill="#E1E8EC" transform="translate(238,232)"/>
<path d="M0 0 C0.99 0 1.98 0 3 0 C3 0.99 3 1.98 3 3 C2.01 3.495 2.01 3.495 1 4 C0.34444881 6.52733235 0.34444881 6.52733235 0 9 C-0.33 9 -0.66 9 -1 9 C-1.09765625 2.84765625 -1.09765625 2.84765625 -1 1 C-0.67 0.67 -0.34 0.34 0 0 Z " fill="#E1F5F3" transform="translate(300,227)"/>
<path d="M0 0 C2.375 0.3125 2.375 0.3125 5 1 C5.66 1.99 6.32 2.98 7 4 C5.1875 4.6875 5.1875 4.6875 3 5 C1.25 3.6875 1.25 3.6875 0 2 C0 1.34 0 0.68 0 0 Z " fill="#EDF3F3" transform="translate(235,227)"/>
<path d="M0 0 C0.33 0.99 0.66 1.98 1 3 C3.00016466 4.20882096 3.00016466 4.20882096 5 5 C4.34 5.66 3.68 6.32 3 7 C1.2925002 5.71937515 -0.37373596 4.38232443 -2 3 C-2 2.34 -2 1.68 -2 1 C-1.34 0.67 -0.68 0.34 0 0 Z " fill="#26739F" transform="translate(307,317)"/>
<path d="M0 0 C1.875 0.3125 1.875 0.3125 4 1 C4.66 1.99 5.32 2.98 6 4 C4.68 4 3.36 4 2 4 C1.34 2.68 0.68 1.36 0 0 Z " fill="#2A4280" transform="translate(43,295)"/>
<path d="M0 0 C1.25541557 3.76624671 0.37061958 5.37188934 -1 9 C-1.99 8.67 -2.98 8.34 -4 8 C-2.68 5.36 -1.36 2.72 0 0 Z " fill="#BBBFCA" transform="translate(165,188)"/>
</svg>
